<svg width="24" height="24" viewBox="0 0 24 24" fill="none" xmlns="http://www.w3.org/2000/svg">
<path d="M14.5469 3.6824C15.1197 3.39764 15.793 3.31292 16.4593 3.49147C17.9094 3.88003 18.77 5.37057 18.3814 6.82069L16.1703 15.0728C15.7817 16.5229 14.2912 17.3835 12.8411 16.9949C11.391 16.6064 10.5304 15.1158 10.919 13.6657L11.8034 10.3649C11.9033 9.99197 11.682 9.60869 11.3092 9.50878C10.9363 9.40886 10.553 9.63015 10.4531 10.003L9.56861 13.3039C8.98023 15.4998 10.2834 17.7569 12.4793 18.3453C14.6751 18.9336 16.9323 17.6305 17.5206 15.4346L19.7318 7.18251C20.3202 4.98662 19.017 2.72952 16.8211 2.14113C15.8132 1.87106 14.7908 1.99999 13.9246 2.43056C13.3935 2.69458 12.92 3.07244 12.543 3.54247C12.3015 3.84361 12.3498 4.28354 12.6509 4.52509C12.952 4.76663 13.392 4.71832 13.6335 4.41719C13.882 4.10745 14.1949 3.85737 14.5469 3.6824Z" fill="#848484"/>
<path d="M8.50257 9.4804C8.89113 8.03028 10.3817 7.16972 11.8318 7.55828C13.2819 7.94684 14.1425 9.43738 13.7539 10.8875L12.8695 14.1883C12.7695 14.5612 12.9908 14.9445 13.3637 15.0444C13.7366 15.1443 14.1199 14.923 14.2198 14.5502L15.1043 11.2493C15.6926 9.05343 14.3895 6.79632 12.1936 6.20793C9.99772 5.61955 7.74062 6.92269 7.15223 9.11858L4.94108 17.3707C4.3527 19.5666 5.65584 21.8237 7.85173 22.4121C8.85963 22.6821 9.8821 22.5532 10.7483 22.1226C11.2794 21.8586 11.7528 21.4808 12.1299 21.0107C12.3714 20.7096 12.3231 20.2697 12.022 20.0281C11.7208 19.7866 11.2809 19.8349 11.0393 20.136C10.7909 20.4457 10.478 20.6958 10.126 20.8708C9.55314 21.1556 8.87992 21.2403 8.21355 21.0617C6.76344 20.6732 5.90287 19.1826 6.29143 17.7325L8.50257 9.4804Z" fill="#848484"/>
</svg>
