<svg width="15" height="20" viewBox="0 0 15 20" fill="none" xmlns="http://www.w3.org/2000/svg">
<path d="M3 10.44C3 10.7642 3.12398 11.0408 3.38147 11.2888L10.8201 18.5653C11.0204 18.7751 11.2874 18.88 11.5926 18.88C12.2125 18.88 12.6988 18.4032 12.6988 17.7737C12.6988 17.4686 12.5749 17.192 12.3651 16.9822L5.66075 10.44L12.3651 3.89781C12.5749 3.67846 12.6988 3.4019 12.6988 3.09672C12.6988 2.47684 12.2125 2 11.5926 2C11.2874 2 11.0204 2.1049 10.8201 2.31471L3.38147 9.59123C3.12398 9.83919 3.00954 10.1158 3 10.44Z" fill="#232323"/>
</svg>
