<svg width="24" height="24" viewBox="0 0 24 24" fill="none" xmlns="http://www.w3.org/2000/svg">
<path fill-rule="evenodd" clip-rule="evenodd" d="M5.70234 8.88659C6.05889 5.67767 8.77124 3.25 11.9999 3.25C15.2286 3.25 17.9409 5.67767 18.2975 8.8866L18.5493 11.1528L18.5554 11.2078C18.6723 12.2261 19.0038 13.2081 19.528 14.0889L19.5564 14.1364L20.1344 15.0998L20.1539 15.1322C20.3995 15.5416 20.6126 15.8966 20.7529 16.1945C20.895 16.4962 21.0266 16.8655 20.9623 17.2727C20.8964 17.6906 20.6814 18.0704 20.357 18.3419C20.0408 18.6066 19.6564 18.6837 19.3246 18.7171C18.997 18.75 18.5829 18.75 18.1054 18.75L18.0677 18.75H5.93214L5.8944 18.75C5.41693 18.75 5.00284 18.75 4.67526 18.7171C4.34341 18.6837 3.95898 18.6066 3.64286 18.3419C3.31848 18.0704 3.10342 17.6906 3.03749 17.2727C2.97324 16.8655 3.10487 16.4962 3.24697 16.1945C3.38725 15.8966 3.60031 15.5416 3.84599 15.1321L3.86541 15.0998L4.44345 14.1364L4.47185 14.0889C4.99606 13.2081 5.32753 12.2261 5.44439 11.2078L5.45054 11.1528L5.70234 8.88659ZM11.9999 4.75C9.53557 4.75 7.46531 6.60297 7.19317 9.05224L6.94137 11.3185L6.93461 11.3788C6.79357 12.6078 6.39353 13.793 5.76086 14.8561L5.72969 14.9081L5.15165 15.8715C4.88096 16.3227 4.70816 16.6124 4.60401 16.8336C4.54002 16.9694 4.52515 17.0337 4.52173 17.0527C4.53245 17.1024 4.55807 17.1477 4.59516 17.1824C4.61321 17.1893 4.676 17.2096 4.82541 17.2246C5.06864 17.2491 5.40601 17.25 5.93214 17.25H18.0677C18.5938 17.25 18.9312 17.2491 19.1744 17.2246C19.3238 17.2096 19.3866 17.1893 19.4047 17.1824C19.4418 17.1477 19.4674 17.1024 19.4781 17.0527C19.4747 17.0337 19.4598 16.9694 19.3958 16.8336C19.2917 16.6124 19.1189 16.3227 18.8482 15.8715L18.2701 14.9081L18.239 14.8561C17.6063 13.793 17.2063 12.6078 17.0652 11.3788L17.0585 11.3185L16.8067 9.05224C16.5345 6.60297 14.4643 4.75 11.9999 4.75Z" fill="#3B3B3B"/>
<path d="M9.10222 18.4059C9.27315 19.1501 9.64978 19.8077 10.1737 20.2767C10.6976 20.7458 11.3396 21 12 21C12.6604 21 13.3024 20.7458 13.8263 20.2767C14.3502 19.8077 14.7269 19.1501 14.8978 18.4059" stroke="#3B3B3B" stroke-width="1.5" stroke-linecap="round"/>
</svg>
