<svg width="53" height="54" viewBox="0 0 53 54" fill="none" xmlns="http://www.w3.org/2000/svg">
<path d="M26.5 23.7887C25.6105 23.7887 24.8728 23.051 24.8728 22.1615V14.9368C24.8728 14.0472 25.6105 13.3096 26.5 13.3096C27.3895 13.3096 28.1272 14.0472 28.1272 14.9368V22.1615C28.1272 23.0727 27.3895 23.7887 26.5 23.7887Z" fill="#D1002C"/>
<path d="M26.5436 45.1163C20.9461 45.1163 15.3703 44.2268 10.0548 42.4477C8.08047 41.7968 6.58345 40.3866 5.93258 38.6076C5.2817 36.8285 5.49866 34.7891 6.56176 33.01L9.31713 28.4105C9.92462 27.3908 10.467 25.4816 10.467 24.2883V19.7322C10.467 10.8585 17.67 3.65552 26.5436 3.65552C35.4173 3.65552 42.6203 10.8585 42.6203 19.7322V24.2883C42.6203 25.4599 43.1627 27.3908 43.7702 28.4105L46.5255 33.01C47.5452 34.7023 47.7188 36.72 47.0462 38.5642C46.3737 40.4083 44.8983 41.8185 43.0325 42.4477C37.717 44.2485 32.1412 45.1163 26.5436 45.1163ZM26.5436 6.93159C19.4708 6.93159 13.7214 12.681 13.7214 19.7538V24.31C13.7214 26.0673 13.0271 28.6058 12.1159 30.1028L9.36052 34.724C8.79643 35.6569 8.66626 36.6549 8.99169 37.5228C9.31713 38.3906 10.0548 39.0415 11.0962 39.3886C21.0763 42.7081 32.0544 42.7081 42.0345 39.3886C42.9674 39.0849 43.6834 38.3906 44.0088 37.4794C44.3559 36.5681 44.2475 35.5701 43.7485 34.724L40.9931 30.1245C40.0819 28.6275 39.3876 26.089 39.3876 24.3317V19.7755C39.3659 12.681 33.6165 6.93159 26.5436 6.93159Z" fill="#D1002C"/>
<path d="M26.4998 50.6481C24.1784 50.6481 21.9003 49.6934 20.2514 48.0446C18.6025 46.3957 17.6479 44.1176 17.6479 41.7961H20.9023C20.9023 43.2715 21.5098 44.7034 22.5512 45.7448C23.5926 46.7862 25.0245 47.3937 26.4998 47.3937C29.5806 47.3937 32.0974 44.877 32.0974 41.7961H35.3517C35.3517 46.6777 31.3814 50.6481 26.4998 50.6481Z" fill="#D1002C"/>
</svg>
