<svg width="26" height="26" viewBox="0 0 26 26" fill="none" xmlns="http://www.w3.org/2000/svg">
<path d="M18.9041 24.6457C17.68 24.6457 16.3908 24.3532 15.0583 23.7898C13.7583 23.2373 12.4475 22.479 11.1691 21.5582C9.90163 20.6265 8.67746 19.5865 7.51829 18.449C6.36996 17.2898 5.32996 16.0657 4.40913 14.809C3.47746 13.509 2.72996 12.209 2.19913 10.9523C1.63579 9.609 1.35413 8.309 1.35413 7.08484C1.35413 6.23984 1.50579 5.43817 1.79829 4.69067C2.10163 3.9215 2.58913 3.2065 3.24996 2.589C4.08413 1.76567 5.03746 1.354 6.05579 1.354C6.47829 1.354 6.91163 1.4515 7.27996 1.62484C7.70246 1.81984 8.05996 2.11234 8.31996 2.50234L10.8333 6.04484C11.0608 6.359 11.2341 6.66234 11.3533 6.96567C11.4941 7.29067 11.57 7.61567 11.57 7.92984C11.57 8.3415 11.4508 8.74234 11.2233 9.1215C11.0608 9.414 10.8116 9.72817 10.4975 10.0423L9.76079 10.8115C9.77163 10.844 9.78246 10.8657 9.79329 10.8873C9.92329 11.1148 10.1833 11.5048 10.6816 12.0898C11.2125 12.6965 11.7108 13.249 12.2091 13.7582C12.8483 14.3865 13.3791 14.8848 13.8775 15.2965C14.495 15.8165 14.8958 16.0765 15.1341 16.1957L15.1125 16.2498L15.9033 15.4698C16.2391 15.134 16.5641 14.8848 16.8783 14.7223C17.4741 14.354 18.2325 14.289 18.9908 14.6032C19.2725 14.7223 19.5758 14.8848 19.9008 15.1123L23.4975 17.669C23.8983 17.9398 24.1908 18.2865 24.3641 18.6982C24.5266 19.1098 24.6025 19.489 24.6025 19.8682C24.6025 20.3882 24.4833 20.9082 24.2558 21.3957C24.0283 21.8832 23.7466 22.3057 23.3891 22.6957C22.7716 23.3782 22.1 23.8657 21.32 24.1798C20.5725 24.4832 19.76 24.6457 18.9041 24.6457ZM6.05579 2.979C5.45996 2.979 4.90746 3.239 4.37663 3.759C3.87829 4.22484 3.53163 4.734 3.31496 5.2865C3.08746 5.84984 2.97913 6.44567 2.97913 7.08484C2.97913 8.09234 3.21746 9.1865 3.69413 10.3132C4.18163 11.4615 4.86413 12.6532 5.73079 13.8448C6.59746 15.0365 7.58329 16.1957 8.66663 17.2898C9.74996 18.3623 10.92 19.359 12.1225 20.2365C13.2925 21.0923 14.495 21.7857 15.6866 22.284C17.5391 23.0748 19.2725 23.259 20.7025 22.6632C21.255 22.4357 21.7425 22.089 22.1866 21.5907C22.4358 21.3198 22.6308 21.0273 22.7933 20.6807C22.9233 20.4098 22.9883 20.1282 22.9883 19.8465C22.9883 19.6732 22.9558 19.4998 22.8691 19.3048C22.8366 19.2398 22.7716 19.1207 22.5658 18.9798L18.9691 16.4232C18.7525 16.2715 18.5575 16.1632 18.3733 16.0873C18.135 15.9898 18.0375 15.8923 17.6691 16.1198C17.4525 16.2282 17.2575 16.3907 17.0408 16.6073L16.2175 17.4198C15.795 17.8315 15.145 17.929 14.6466 17.7448L14.3541 17.6148C13.91 17.3765 13.39 17.0082 12.8158 16.5207C12.2958 16.0765 11.7325 15.5565 11.05 14.8848C10.5191 14.3432 9.98829 13.769 9.43579 13.1298C8.92663 12.534 8.55829 12.0248 8.33079 11.6023L8.20079 11.2773C8.13579 11.0282 8.11413 10.8873 8.11413 10.7357C8.11413 10.3457 8.25496 9.999 8.52579 9.72817L9.33829 8.88317C9.55496 8.6665 9.71746 8.46067 9.82579 8.2765C9.91246 8.13567 9.94496 8.0165 9.94496 7.90817C9.94496 7.8215 9.91246 7.6915 9.85829 7.5615C9.78246 7.38817 9.66329 7.19317 9.51163 6.98734L6.99829 3.434C6.88996 3.28234 6.75996 3.174 6.59746 3.09817C6.42413 3.02234 6.23996 2.979 6.05579 2.979ZM15.1125 16.2607L14.9391 16.9973L15.2316 16.239C15.1775 16.2282 15.1341 16.239 15.1125 16.2607Z" fill="#232323"/>
</svg>
