<svg width="19" height="19" viewBox="0 0 19 19" fill="none" xmlns="http://www.w3.org/2000/svg">
<path d="M2.75 7.64058C2.75 6.87258 3.37258 6.25 4.14058 6.25V6.25C4.66729 6.25 5.14879 5.95241 5.38435 5.48131L6.08541 4.07918C6.28713 3.67574 6.38799 3.47402 6.56923 3.36201C6.75047 3.25 6.97599 3.25 7.42705 3.25H11.5729C12.024 3.25 12.2495 3.25 12.4308 3.36201C12.612 3.47402 12.7129 3.67574 12.9146 4.07918L13.6157 5.48131C13.8512 5.95241 14.3327 6.25 14.8594 6.25V6.25C15.6274 6.25 16.25 6.87258 16.25 7.64058V13C16.25 14.0607 16.25 14.591 15.9205 14.9205C15.591 15.25 15.0607 15.25 14 15.25H5C3.93934 15.25 3.40901 15.25 3.0795 14.9205C2.75 14.591 2.75 14.0607 2.75 13V7.64058Z" stroke="#999999" stroke-width="1.125"/>
<circle cx="9.5" cy="10" r="2.4375" stroke="#999999" stroke-width="1.125"/>
</svg>
