<svg width="24" height="25" viewBox="0 0 24 25" fill="none" xmlns="http://www.w3.org/2000/svg">
<path d="M6 16.75C5.58579 16.75 5.25 17.0858 5.25 17.5C5.25 17.9142 5.58579 18.25 6 18.25H8C8.41421 18.25 8.75 17.9142 8.75 17.5C8.75 17.0858 8.41421 16.75 8 16.75H6Z" fill="#2E2E2E"/>
<path d="M11 16.75C10.5858 16.75 10.25 17.0858 10.25 17.5C10.25 17.9142 10.5858 18.25 11 18.25H15C15.4142 18.25 15.75 17.9142 15.75 17.5C15.75 17.0858 15.4142 16.75 15 16.75H11Z" fill="#2E2E2E"/>
<path fill-rule="evenodd" clip-rule="evenodd" d="M17.3451 3.82061C16.4807 3.74999 15.4053 3.75 14.0336 3.75H9.96644C8.59472 3.75 7.51929 3.74999 6.65494 3.82061C5.77479 3.89252 5.04769 4.04138 4.38955 4.37671C3.30762 4.92798 2.42798 5.80762 1.87671 6.88955C1.39394 7.83705 1.2906 8.94938 1.26119 10.4856C1.25 11.0699 1.25 11.7352 1.25 12.4942V12.5336C1.25 13.9053 1.24999 14.9807 1.32061 15.8451C1.39252 16.7252 1.54138 17.4523 1.87671 18.1104C2.42798 19.1924 3.30762 20.072 4.38955 20.6233C5.04769 20.9586 5.77479 21.1075 6.65494 21.1794C7.51927 21.25 8.59469 21.25 9.96637 21.25H14.0336C15.4053 21.25 16.4807 21.25 17.3451 21.1794C18.2252 21.1075 18.9523 20.9586 19.6104 20.6233C20.6924 20.072 21.572 19.1924 22.1233 18.1104C22.4586 17.4523 22.6075 16.7252 22.6794 15.8451C22.75 14.9807 22.75 13.9053 22.75 12.5336V12.4942C22.75 11.7352 22.75 11.0699 22.7388 10.4856C22.7094 8.94938 22.6061 7.83705 22.1233 6.88955C21.572 5.80762 20.6924 4.92798 19.6104 4.37671C18.9523 4.04138 18.2252 3.89252 17.3451 3.82061ZM5.07054 5.71322C5.48197 5.50359 5.9897 5.37996 6.77708 5.31563C7.57322 5.25058 8.58749 5.25 10 5.25H14C15.4125 5.25 16.4268 5.25058 17.2229 5.31563C18.0103 5.37996 18.518 5.50359 18.9295 5.71322C19.7291 6.12068 20.3793 6.77085 20.7868 7.57054C21.0409 8.06922 21.1625 8.69217 21.2143 9.75H2.78567C2.83752 8.69217 2.95913 8.06922 3.21322 7.57054C3.62068 6.77085 4.27085 6.12068 5.07054 5.71322ZM2.75 12.5C2.75 12.0452 2.75001 11.6307 2.7523 11.25H21.2477C21.25 11.6307 21.25 12.0452 21.25 12.5C21.25 13.9125 21.2494 14.9268 21.1844 15.7229C21.12 16.5103 20.9964 17.018 20.7868 17.4295C20.3793 18.2291 19.7291 18.8793 18.9295 19.2868C18.518 19.4964 18.0103 19.62 17.2229 19.6844C16.4268 19.7494 15.4125 19.75 14 19.75H10C8.58749 19.75 7.57322 19.7494 6.77708 19.6844C5.9897 19.62 5.48197 19.4964 5.07054 19.2868C4.27085 18.8793 3.62068 18.2291 3.21322 17.4295C3.00359 17.018 2.87996 16.5103 2.81563 15.7229C2.75058 14.9268 2.75 13.9125 2.75 12.5Z" fill="#2E2E2E"/>
</svg>
