<svg width="24" height="25" viewBox="0 0 24 25" fill="none" xmlns="http://www.w3.org/2000/svg">
<path d="M12 22.5C11.3581 22.5 10.7535 22.1753 10.3256 21.6095L8.93023 19.7542C8.90233 19.7171 8.7907 19.6707 8.74419 19.6614H8.27907C4.4 19.6614 2 18.6132 2 13.3998V8.7616C2 4.66141 4.16744 2.5 8.27907 2.5H15.7209C19.8326 2.5 22 4.66141 22 8.7616V13.3998C22 17.5 19.8326 19.6614 15.7209 19.6614H15.2558C15.1814 19.6614 15.1163 19.6985 15.0698 19.7542L13.6744 21.6095C13.2465 22.1753 12.6419 22.5 12 22.5ZM8.27907 3.89147C4.94884 3.89147 3.39535 5.44063 3.39535 8.7616V13.3998C3.39535 17.5928 4.83721 18.2699 8.27907 18.2699H8.74419C9.21861 18.2699 9.75814 18.539 10.0465 18.9193L11.4419 20.7746C11.7674 21.2013 12.2326 21.2013 12.5581 20.7746L13.9535 18.9193C14.2605 18.5111 14.7442 18.2699 15.2558 18.2699H15.7209C19.0512 18.2699 20.6047 16.7208 20.6047 13.3998V8.7616C20.6047 5.44063 19.0512 3.89147 15.7209 3.89147H8.27907Z" fill="#232323"/>
<path d="M17 9.25H7C6.59 9.25 6.25 8.91 6.25 8.5C6.25 8.09 6.59 7.75 7 7.75H17C17.41 7.75 17.75 8.09 17.75 8.5C17.75 8.91 17.41 9.25 17 9.25Z" fill="#232323"/>
<path d="M13 14.25H7C6.59 14.25 6.25 13.91 6.25 13.5C6.25 13.09 6.59 12.75 7 12.75H13C13.41 12.75 13.75 13.09 13.75 13.5C13.75 13.91 13.41 14.25 13 14.25Z" fill="#232323"/>
</svg>
