<svg width="20" height="20" viewBox="0 0 20 20" fill="none" xmlns="http://www.w3.org/2000/svg">
<path d="M10.0001 18.3334C5.40318 18.3334 1.66675 14.597 1.66675 10.0001C1.66675 5.40318 5.40318 1.66675 10.0001 1.66675C14.597 1.66675 18.3334 5.40318 18.3334 10.0001C18.3334 14.597 14.597 18.3334 10.0001 18.3334ZM10.0001 2.82954C6.04659 2.82954 2.82954 6.04659 2.82954 10.0001C2.82954 13.9536 6.04659 17.1706 10.0001 17.1706C13.9536 17.1706 17.1706 13.9536 17.1706 10.0001C17.1706 6.04659 13.9536 2.82954 10.0001 2.82954Z" fill="#848484"/>
<path d="M13.0916 13.275C12.9833 13.275 12.875 13.25 12.775 13.1833L10.1916 11.6416C9.54995 11.2583 9.07495 10.4166 9.07495 9.67497V6.2583C9.07495 5.91663 9.35828 5.6333 9.69995 5.6333C10.0416 5.6333 10.325 5.91663 10.325 6.2583V9.67497C10.325 9.97497 10.575 10.4166 10.8333 10.5666L13.4166 12.1083C13.7166 12.2833 13.8083 12.6666 13.6333 12.9666C13.5083 13.1666 13.3 13.275 13.0916 13.275Z" fill="#848484"/>
</svg>
