<svg width="16" height="16" viewBox="0 0 16 16" fill="none" xmlns="http://www.w3.org/2000/svg">
<path d="M0.469644 1.53033C0.17675 1.23744 0.17675 0.762563 0.469644 0.46967C0.762536 0.176777 1.23741 0.176777 1.5303 0.46967L7.99999 6.93935L14.4697 0.469673C14.7626 0.17678 15.2374 0.17678 15.5303 0.469673C15.8232 0.762566 15.8232 1.23744 15.5303 1.53033L9.06065 8.00001L15.5303 14.4697C15.8232 14.7626 15.8232 15.2374 15.5303 15.5303C15.2374 15.8232 14.7625 15.8232 14.4696 15.5303L7.99999 9.06067L1.53033 15.5303C1.23744 15.8232 0.762563 15.8232 0.46967 15.5303C0.176777 15.2374 0.176777 14.7626 0.46967 14.4697L6.93933 8.00002L0.469644 1.53033Z" fill="#232323"/>
</svg>
