<svg width="20" height="21" viewBox="0 0 20 21" fill="none" xmlns="http://www.w3.org/2000/svg">
<path d="M1.42773 5.3125H18.5706" stroke="#999999" stroke-width="1.25" stroke-linecap="round" stroke-linejoin="round"/>
<path d="M3.57227 5.3125H16.4294V18.1696C16.4294 18.5485 16.2789 18.9119 16.011 19.1798C15.7431 19.4477 15.3797 19.5982 15.0008 19.5982H5.00084C4.62196 19.5982 4.25859 19.4477 3.99068 19.1798C3.72278 18.9119 3.57227 18.5485 3.57227 18.1696V5.3125Z" stroke="#999999" stroke-width="1.25" stroke-linecap="round" stroke-linejoin="round"/>
<path d="M6.42773 5.31306V4.59877C6.42773 3.65157 6.80401 2.74316 7.47378 2.07339C8.14355 1.40362 9.05196 1.02734 9.99916 1.02734C10.9464 1.02734 11.8548 1.40362 12.5245 2.07339C13.1943 2.74316 13.5706 3.65157 13.5706 4.59877V5.31306" stroke="#999999" stroke-width="1.25" stroke-linecap="round" stroke-linejoin="round"/>
<path d="M7.85742 9.60156V15.318" stroke="#999999" stroke-width="1.25" stroke-linecap="round" stroke-linejoin="round"/>
<path d="M12.1426 9.60156V15.318" stroke="#999999" stroke-width="1.25" stroke-linecap="round" stroke-linejoin="round"/>
</svg>
