<svg width="24" height="24" viewBox="0 0 24 24" fill="none" xmlns="http://www.w3.org/2000/svg">
<path fill-rule="evenodd" clip-rule="evenodd" d="M11.875 7.4C10.011 7.4 8.5 8.91104 8.5 10.775C8.5 12.639 10.011 14.15 11.875 14.15C13.739 14.15 15.25 12.639 15.25 10.775C15.25 8.91104 13.739 7.4 11.875 7.4ZM9.85 10.775C9.85 9.65662 10.7566 8.75 11.875 8.75C12.9934 8.75 13.9 9.65662 13.9 10.775C13.9 11.8934 12.9934 12.8 11.875 12.8C10.7566 12.8 9.85 11.8934 9.85 10.775Z" fill="#232323"/>
<path fill-rule="evenodd" clip-rule="evenodd" d="M11.875 2C7.48 2 4 5.8185 4 10.4228C4 11.8995 4.73359 13.6383 5.65658 15.2701C6.5945 16.9283 7.79159 18.5836 8.84113 19.922L8.87614 19.9666C9.38842 20.62 9.82483 21.1765 10.248 21.5609C10.7097 21.9803 11.2188 22.2549 11.875 22.2549C12.5312 22.2549 13.0403 21.9803 13.502 21.5609C13.9252 21.1765 14.3616 20.6199 14.8739 19.9666L14.9089 19.922C15.9584 18.5836 17.1555 16.9283 18.0934 15.2701C19.0164 13.6383 19.75 11.8995 19.75 10.4228C19.75 5.8185 16.27 2 11.875 2ZM5.35 10.4228C5.35 6.46914 8.3171 3.35 11.875 3.35C15.4329 3.35 18.4 6.46914 18.4 10.4228C18.4 11.5267 17.8243 13.0037 16.9184 14.6054C16.0273 16.1807 14.8758 17.7764 13.8466 19.0889C13.2895 19.7993 12.9227 20.2633 12.5943 20.5617C12.2947 20.8338 12.0948 20.9049 11.875 20.9049C11.6552 20.9049 11.4553 20.8338 11.1557 20.5617C10.8273 20.2633 10.4605 19.7993 9.90344 19.0889C8.8742 17.7764 7.72265 16.1807 6.83163 14.6054C5.92566 13.0037 5.35 11.5267 5.35 10.4228Z" fill="#232323"/>
</svg>
