<svg width="24" height="24" viewBox="0 0 24 24" fill="none" xmlns="http://www.w3.org/2000/svg">
<g clip-path="url(#clip0_236_6583)">
<path d="M12 12.6362C11.3742 12.6362 10.7625 12.8228 10.2422 13.1725C9.72182 13.5221 9.31628 14.019 9.07679 14.6005C8.83731 15.1819 8.77465 15.8216 8.89674 16.4389C9.01882 17.0561 9.32018 17.6231 9.76268 18.0681C10.2052 18.5131 10.769 18.8161 11.3828 18.9389C11.9965 19.0616 12.6327 18.9986 13.2109 18.7578C13.789 18.517 14.2832 18.1091 14.6309 17.5859C14.9786 17.0626 15.1641 16.4474 15.1641 15.8181C15.1632 14.9745 14.8296 14.1657 14.2364 13.5692C13.6432 12.9727 12.8389 12.6372 12 12.6362ZM12 17.5856C11.6524 17.5856 11.3126 17.482 11.0236 17.2877C10.7345 17.0935 10.5092 16.8175 10.3762 16.4945C10.2432 16.1715 10.2084 15.8162 10.2762 15.4733C10.344 15.1304 10.5114 14.8155 10.7572 14.5683C11.003 14.3211 11.3162 14.1528 11.6571 14.0846C11.9981 14.0164 12.3515 14.0514 12.6726 14.1852C12.9938 14.3189 13.2683 14.5455 13.4614 14.8361C13.6546 15.1268 13.7576 15.4685 13.7576 15.8181C13.757 16.2867 13.5717 16.7359 13.2422 17.0672C12.9127 17.3986 12.466 17.585 12 17.5856Z" fill="#848484"/>
<path d="M20.9243 14.1432C20.1201 12.568 18.8873 11.255 17.3696 10.3573L19.273 8.44322C19.3389 8.3777 19.3913 8.29974 19.4271 8.2138C19.4629 8.12787 19.4815 8.03566 19.4817 7.94249C19.482 7.84931 19.4639 7.757 19.4286 7.67086C19.3932 7.58473 19.3413 7.50647 19.2758 7.44058C19.2103 7.3747 19.1325 7.32248 19.0468 7.28695C18.9612 7.25141 18.8694 7.23325 18.7767 7.23351C18.6841 7.23377 18.5924 7.25245 18.5069 7.28847C18.4215 7.32448 18.3439 7.37713 18.2788 7.44339L16.0459 9.68883C14.9814 9.24745 13.8522 8.9847 12.7031 8.91106V5.707C12.7031 5.51949 12.6291 5.33966 12.4972 5.20707C12.3654 5.07449 12.1865 5 12.0001 5C11.8136 5 11.6348 5.07449 11.503 5.20707C11.3711 5.33966 11.297 5.51949 11.297 5.707V8.91183C10.148 8.98547 9.01873 9.24822 7.95428 9.68961L5.72178 7.44378C5.65663 7.37752 5.5791 7.32487 5.49364 7.28886C5.40819 7.25284 5.3165 7.23416 5.22384 7.2339C5.13119 7.23364 5.03939 7.2518 4.95374 7.28734C4.86809 7.32287 4.79026 7.37509 4.72475 7.44097C4.65923 7.50686 4.60731 7.58512 4.57197 7.67125C4.53663 7.75739 4.51857 7.8497 4.51883 7.94287C4.51909 8.03605 4.53766 8.12826 4.57348 8.21419C4.6093 8.30013 4.66165 8.3781 4.72754 8.44361L6.63094 10.3577C5.11373 11.2555 3.88138 12.5683 3.07743 14.1432C3.00253 14.3092 2.99433 14.4979 3.05453 14.6699C3.11474 14.8419 3.23869 14.9839 3.4005 15.0661C3.56231 15.1484 3.74947 15.1646 3.92289 15.1114C4.09631 15.0582 4.24258 14.9397 4.33115 14.7806C5.63554 12.1828 8.5417 10.3029 12.0001 10.3029C15.4585 10.3029 18.3662 12.1851 19.6675 14.7806C19.7091 14.8634 19.7665 14.9373 19.8365 14.9978C19.9065 15.0584 19.9877 15.1045 20.0754 15.1335C20.1631 15.1625 20.2556 15.1739 20.3477 15.1669C20.4398 15.16 20.5296 15.1349 20.612 15.093C20.6944 15.0512 20.7679 14.9934 20.8281 14.923C20.8883 14.8526 20.9342 14.771 20.963 14.6828C20.9919 14.5946 21.0032 14.5016 20.9962 14.409C20.9893 14.3164 20.9644 14.2261 20.9227 14.1432H20.9243Z" fill="#848484"/>
</g>
<defs>
<clipPath id="clip0_236_6583">
<rect width="18" height="14" fill="white" transform="translate(3 5)"/>
</clipPath>
</defs>
</svg>
