<svg width="24" height="24" viewBox="0 0 24 24" fill="none" xmlns="http://www.w3.org/2000/svg">
<g clip-path="url(#clip0_926_13319)">
<path d="M12.8378 12.2205L11.5558 13.5372C11.5976 13.533 11.6393 13.533 11.6853 13.533C12.0606 13.5326 12.4277 13.6433 12.7401 13.851C13.0524 14.0587 13.296 14.3542 13.44 14.7001C13.5841 15.046 13.6221 15.4267 13.5493 15.7942C13.4764 16.1616 13.296 16.4992 13.0309 16.7644C12.7657 17.0295 12.4278 17.2102 12.0597 17.2837C11.6916 17.3572 11.3099 17.3201 10.9629 17.1771C10.616 17.0342 10.3193 16.7918 10.1104 16.4806C9.9015 16.1694 9.78978 15.8034 9.78937 15.4288C9.78868 15.4038 9.79007 15.3787 9.79354 15.3538L8.50317 16.6747C8.7116 17.2063 9.05044 17.6773 9.48864 18.0444C9.92683 18.4115 10.4504 18.6629 11.0112 18.7757C11.5721 18.8885 12.1524 18.8591 12.6989 18.69C13.2454 18.521 13.7406 18.2178 14.1392 17.8082C14.5378 17.3987 14.827 16.8958 14.9802 16.3458C15.1335 15.7958 15.1459 15.2162 15.0164 14.6601C14.8869 14.104 14.6196 13.5893 14.239 13.1631C13.8583 12.7368 13.3766 12.4127 12.8378 12.2205Z" fill="#979797"/>
<path d="M13.5519 9.69551L14.7838 8.42884L14.7662 8.42426L18.1722 4.92426C18.2899 4.80706 18.3561 4.64801 18.3563 4.48208C18.3565 4.31615 18.2907 4.15693 18.1732 4.03947C18.0557 3.922 17.8963 3.85589 17.73 3.8557C17.5637 3.8555 17.4042 3.92123 17.2864 4.03842L13.3147 8.12176C13.0265 8.08009 12.7367 8.04717 12.4452 8.02884V4.59551C12.4452 4.39438 12.3652 4.2015 12.2226 4.05928C12.0801 3.91707 11.8868 3.83717 11.6852 3.83717C11.4837 3.83717 11.2903 3.91707 11.1478 4.05928C11.0053 4.2015 10.9252 4.39438 10.9252 4.59551V8.02884C9.68478 8.10681 8.46575 8.38837 7.31717 8.86217L4.90764 6.45384C4.7652 6.31392 4.57327 6.23558 4.37339 6.23578C4.1735 6.23598 3.98173 6.31469 3.83957 6.45489C3.69741 6.5951 3.61629 6.78551 3.61376 6.98494C3.61123 7.18436 3.6875 7.37676 3.82607 7.52051C3.83024 7.52467 3.83024 7.52467 3.83442 7.52467L5.88899 9.57884C4.25111 10.5407 2.92035 11.9466 2.05129 13.633C1.9693 13.811 1.95962 14.0137 2.02428 14.1986C2.08894 14.3835 2.2229 14.5362 2.39803 14.6247C2.57316 14.7131 2.77583 14.7304 2.96347 14.6729C3.15111 14.6154 3.30911 14.4876 3.4043 14.3163C4.81159 11.533 7.95192 9.52051 11.6852 9.52051C11.7725 9.52051 11.856 9.53009 11.9425 9.53217L3.94801 17.7538C3.83044 17.871 3.76433 18.0299 3.76421 18.1957C3.76409 18.3615 3.82998 18.5205 3.94738 18.6378C4.06478 18.7551 4.22407 18.8211 4.39022 18.8212C4.55636 18.8213 4.71574 18.7556 4.83331 18.6384L13.5322 9.69259L13.5519 9.69551Z" fill="#979797"/>
<path d="M21.3233 13.633C20.4554 11.9457 19.1244 10.5396 17.4856 9.57885L19.5401 7.52468C19.683 7.38323 19.7637 7.19095 19.7645 6.99013C19.7653 6.78931 19.6861 6.5964 19.5443 6.45385C19.4025 6.31129 19.2098 6.23077 19.0086 6.22999C18.8073 6.2292 18.614 6.30823 18.4711 6.44968L17.7904 7.12885L14.9382 10.0622C17.1035 10.7764 18.9061 12.3017 19.9661 14.3163C20.0569 14.4959 20.2155 14.6321 20.407 14.695C20.5985 14.7579 20.8071 14.7424 20.9871 14.6518C21.1671 14.5611 21.3036 14.4029 21.3666 14.2119C21.4297 14.0208 21.4141 13.8126 21.3233 13.633Z" fill="#979797"/>
</g>
<defs>
<clipPath id="clip0_926_13319">
<rect width="20" height="15" fill="white" transform="translate(2 4)"/>
</clipPath>
</defs>
</svg>
