<svg width="21" height="20" viewBox="0 0 21 20" fill="none" xmlns="http://www.w3.org/2000/svg">
<path d="M5.41675 5.41699C5.41675 5.00278 5.08096 4.66699 4.66675 4.66699C4.25253 4.66699 3.91675 5.00278 3.91675 5.41699H5.41675ZM3.91675 17.5003C3.91675 17.9145 4.25253 18.2503 4.66675 18.2503C5.08096 18.2503 5.41675 17.9145 5.41675 17.5003H3.91675ZM3.91675 5.41699L3.91675 17.5003H5.41675L5.41675 5.41699H3.91675Z" fill="#848484"/>
<path d="M8.74405 3.3643L8.46683 4.06119L8.74405 3.3643ZM11.424 4.43036L11.1468 5.12724L11.424 4.43036ZM11.424 10.6454L11.7012 11.3423H11.7012L11.424 10.6454ZM4.66675 13.3333H3.91675C3.91675 13.5819 4.03995 13.8144 4.24568 13.954C4.45142 14.0936 4.71295 14.1221 4.94396 14.0302L4.66675 13.3333ZM5.32494 2.66218L4.9382 2.01958L4.9382 2.01958L5.32494 2.66218ZM8.46683 4.06119L11.1468 5.12724L11.7012 3.73347L9.02126 2.66741L8.46683 4.06119ZM11.1468 9.94849L4.38953 12.6364L4.94396 14.0302L11.7012 11.3423L11.1468 9.94849ZM11.1468 5.12724C12.807 5.78767 13.9725 6.25332 14.7326 6.68977C15.5168 7.14004 15.5834 7.39861 15.5834 7.53786H17.0834C17.0834 6.52252 16.3318 5.8783 15.4795 5.38895C14.6032 4.88578 13.3139 4.37498 11.7012 3.73347L11.1468 5.12724ZM11.7012 11.3423C13.3139 10.7007 14.6032 10.1899 15.4795 9.68678C16.3318 9.19743 17.0834 8.55321 17.0834 7.53786H15.5834C15.5834 7.67712 15.5168 7.93569 14.7326 8.38596C13.9725 8.82241 12.807 9.28806 11.1468 9.94849L11.7012 11.3423ZM3.91675 5.81823V13.3333H5.41675V5.81823H3.91675ZM9.02126 2.66741C8.12223 2.30979 7.37501 2.0107 6.77036 1.86186C6.15599 1.71062 5.52017 1.66932 4.9382 2.01958L5.71169 3.30477C5.78791 3.25889 5.94134 3.20257 6.41182 3.31838C6.89203 3.43659 7.52526 3.68664 8.46683 4.06119L9.02126 2.66741ZM5.41675 5.81823C5.41675 4.87127 5.41909 4.25395 5.48943 3.81834C5.55547 3.40937 5.65413 3.33941 5.71169 3.30477L4.9382 2.01958C4.33756 2.38108 4.10712 2.96917 4.00861 3.57921C3.91441 4.1626 3.91675 4.92524 3.91675 5.81823H5.41675Z" fill="#848484"/>
</svg>
