<svg width="24" height="25" viewBox="0 0 24 25" fill="none" xmlns="http://www.w3.org/2000/svg">
<path d="M12 20.5652C7.45 20.5652 3.75 16.8652 3.75 12.3152C3.75 7.76519 7.45 4.06519 12 4.06519C16.55 4.06519 20.25 7.76519 20.25 12.3152C20.25 16.8652 16.55 20.5652 12 20.5652ZM12 5.56519C8.28 5.56519 5.25 8.59519 5.25 12.3152C5.25 16.0352 8.28 19.0652 12 19.0652C15.72 19.0652 18.75 16.0352 18.75 12.3152C18.75 8.59519 15.72 5.56519 12 5.56519Z" fill="white"/>
<path d="M12 16.0652C9.93 16.0652 8.25 14.3852 8.25 12.3152C8.25 10.2452 9.93 8.56519 12 8.56519C14.07 8.56519 15.75 10.2452 15.75 12.3152C15.75 14.3852 14.07 16.0652 12 16.0652ZM12 10.0652C10.76 10.0652 9.75 11.0752 9.75 12.3152C9.75 13.5552 10.76 14.5652 12 14.5652C13.24 14.5652 14.25 13.5552 14.25 12.3152C14.25 11.0752 13.24 10.0652 12 10.0652Z" fill="white"/>
<path d="M12 5.06519C11.59 5.06519 11.25 4.72519 11.25 4.31519V2.31519C11.25 1.90519 11.59 1.56519 12 1.56519C12.41 1.56519 12.75 1.90519 12.75 2.31519V4.31519C12.75 4.72519 12.41 5.06519 12 5.06519Z" fill="white"/>
<path d="M4 13.0652H2C1.59 13.0652 1.25 12.7252 1.25 12.3152C1.25 11.9052 1.59 11.5652 2 11.5652H4C4.41 11.5652 4.75 11.9052 4.75 12.3152C4.75 12.7252 4.41 13.0652 4 13.0652Z" fill="white"/>
<path d="M12 23.0652C11.59 23.0652 11.25 22.7252 11.25 22.3152V20.3152C11.25 19.9052 11.59 19.5652 12 19.5652C12.41 19.5652 12.75 19.9052 12.75 20.3152V22.3152C12.75 22.7252 12.41 23.0652 12 23.0652Z" fill="white"/>
<path d="M22 13.0652H20C19.59 13.0652 19.25 12.7252 19.25 12.3152C19.25 11.9052 19.59 11.5652 20 11.5652H22C22.41 11.5652 22.75 11.9052 22.75 12.3152C22.75 12.7252 22.41 13.0652 22 13.0652Z" fill="white"/>
</svg>
