<svg width="24" height="24" viewBox="0 0 24 24" fill="none" xmlns="http://www.w3.org/2000/svg">
<path d="M8.91268 3.81661C10.5072 3.10386 12.3011 2.85216 14.031 3.08328C15.5281 3.28155 16.975 3.84709 18.2098 4.71656C19.1169 5.35096 19.9111 6.14604 20.5459 7.05272C21.6184 8.57361 22.218 10.417 22.2627 12.2767V12.7504C22.2156 14.303 21.7934 15.8448 21.0197 17.1928C20.2467 18.553 19.1315 19.7165 17.8049 20.5464C16.5163 21.3593 15.0267 21.8501 13.5078 21.9664C12.5734 22.0345 11.6272 21.9945 10.7106 21.7931C8.53592 21.3296 6.54922 20.0319 5.2638 18.2158C5.08769 17.953 5.15972 17.5628 5.41459 17.3768C5.62513 17.209 5.94173 17.207 6.16059 17.3598C6.26942 17.4354 6.34145 17.549 6.4206 17.6527C7.30314 18.8193 8.52365 19.726 9.89455 20.2358C10.8835 20.6094 11.9489 20.7681 13.004 20.7241C14.5451 20.6838 16.0703 20.1954 17.3486 19.3338C18.5679 18.5186 19.5621 17.3701 20.1929 16.0459C20.899 14.5713 21.1503 12.8838 20.9053 11.2675C20.6065 9.24402 19.5146 7.35389 17.9177 6.07718C16.7716 5.15229 15.3706 4.54956 13.9119 4.34812C12.4503 4.13797 10.9326 4.33347 9.5728 4.91088C7.97672 5.58129 6.60146 6.76737 5.7118 8.25344C5.1712 9.14666 4.81066 10.1459 4.64128 11.1757C4.85103 10.9941 5.00735 10.734 5.27409 10.6308C5.57249 10.5235 5.93342 10.6751 6.05769 10.9679C6.17009 11.2113 6.10677 11.518 5.90889 11.6985C5.38055 12.2245 4.85657 12.7552 4.32547 13.2784C4.06981 13.5309 3.60202 13.4944 3.39742 13.1956C2.97594 12.5751 2.56554 11.947 2.14603 11.3249C2.07638 11.2268 2.02493 11.1156 2 10.9972V10.8449C2.03483 10.4748 2.42702 10.1919 2.78795 10.2983C3.10139 10.3624 3.22843 10.6822 3.39979 10.9129C3.62102 9.61405 4.11057 8.36069 4.83995 7.26247C5.83251 5.7574 7.26317 4.54441 8.91268 3.81661Z" fill="#161B54"/>
<path d="M12.2168 6.52562C12.4448 6.43302 12.7245 6.4908 12.8951 6.66889C13.0233 6.79553 13.0894 6.97679 13.0815 7.15646C13.0807 8.93618 13.0811 10.7163 13.0811 12.4964C14.2526 13.3845 15.426 14.2698 16.5966 15.1587C16.7894 15.2984 16.8836 15.5509 16.8404 15.7836C16.7961 16.0353 16.5844 16.2482 16.3307 16.2874C16.1558 16.3226 15.9701 16.2743 15.8297 16.1659C14.5771 15.2263 13.3249 14.2864 12.0719 13.3477C11.9018 13.2286 11.8139 13.018 11.8155 12.8142C11.8143 10.913 11.8139 9.01216 11.8155 7.11134C11.8119 6.85806 11.9801 6.61467 12.2168 6.52562Z" fill="#161B54"/>
</svg>
