<svg width="20" height="20" viewBox="0 0 20 20" fill="none" xmlns="http://www.w3.org/2000/svg">
<path d="M4.91675 5.41675C4.91675 5.00253 4.58096 4.66675 4.16675 4.66675C3.75253 4.66675 3.41675 5.00253 3.41675 5.41675H4.91675ZM3.41675 17.5001C3.41675 17.9143 3.75253 18.2501 4.16675 18.2501C4.58096 18.2501 4.91675 17.9143 4.91675 17.5001H3.41675ZM3.41675 5.41675L3.41675 17.5001H4.91675L4.91675 5.41675H3.41675Z" fill="#848484"/>
<path d="M8.24405 3.3643L7.96683 4.06119L8.24405 3.3643ZM10.924 4.43036L10.6468 5.12724L10.924 4.43036ZM10.924 10.6454L11.2012 11.3423H11.2012L10.924 10.6454ZM4.16675 13.3333H3.41675C3.41675 13.5819 3.53995 13.8144 3.74568 13.954C3.95142 14.0936 4.21295 14.1221 4.44396 14.0302L4.16675 13.3333ZM4.82494 2.66218L4.4382 2.01958L4.4382 2.01958L4.82494 2.66218ZM7.96683 4.06119L10.6468 5.12724L11.2012 3.73347L8.52126 2.66741L7.96683 4.06119ZM10.6468 9.94849L3.88953 12.6364L4.44396 14.0302L11.2012 11.3423L10.6468 9.94849ZM10.6468 5.12724C12.307 5.78767 13.4725 6.25332 14.2326 6.68977C15.0168 7.14004 15.0834 7.39861 15.0834 7.53786H16.5834C16.5834 6.52252 15.8318 5.8783 14.9795 5.38895C14.1032 4.88578 12.8139 4.37498 11.2012 3.73347L10.6468 5.12724ZM11.2012 11.3423C12.8139 10.7007 14.1032 10.1899 14.9795 9.68678C15.8318 9.19743 16.5834 8.55321 16.5834 7.53786H15.0834C15.0834 7.67712 15.0168 7.93569 14.2326 8.38596C13.4725 8.82241 12.307 9.28806 10.6468 9.94849L11.2012 11.3423ZM3.41675 5.81823V13.3333H4.91675V5.81823H3.41675ZM8.52126 2.66741C7.62223 2.30979 6.87501 2.0107 6.27036 1.86186C5.65599 1.71062 5.02017 1.66932 4.4382 2.01958L5.21169 3.30477C5.28791 3.25889 5.44134 3.20257 5.91182 3.31838C6.39203 3.43659 7.02526 3.68664 7.96683 4.06119L8.52126 2.66741ZM4.91675 5.81823C4.91675 4.87127 4.91909 4.25395 4.98943 3.81834C5.05547 3.40937 5.15413 3.33941 5.21169 3.30477L4.4382 2.01958C3.83756 2.38108 3.60712 2.96917 3.50861 3.57921C3.41441 4.1626 3.41675 4.92524 3.41675 5.81823H4.91675Z" fill="#848484"/>
</svg>
