<svg width="24" height="25" viewBox="0 0 24 25" fill="none" xmlns="http://www.w3.org/2000/svg">
<path fill-rule="evenodd" clip-rule="evenodd" d="M10.9744 6.60256C9.41663 6.60256 8.15385 7.86535 8.15385 9.42308C8.15385 10.9808 9.41663 12.2436 10.9744 12.2436C12.5321 12.2436 13.7949 10.9808 13.7949 9.42308C13.7949 7.86535 12.5321 6.60256 10.9744 6.60256ZM9.69231 9.42308C9.69231 8.71502 10.2663 8.14103 10.9744 8.14103C11.6824 8.14103 12.2564 8.71502 12.2564 9.42308C12.2564 10.1311 11.6824 10.7051 10.9744 10.7051C10.2663 10.7051 9.69231 10.1311 9.69231 9.42308Z" fill="#A3A3A3"/>
<path fill-rule="evenodd" clip-rule="evenodd" d="M16.578 2.6269C15.4066 2.49999 13.93 2.49999 12.0464 2.5H11.9536C10.07 2.49999 8.59345 2.49999 7.42203 2.6269C6.2266 2.75642 5.25801 3.02546 4.43101 3.62631C3.93035 3.99006 3.49006 4.43035 3.12631 4.93101C2.52546 5.75801 2.25642 6.7266 2.1269 7.92203C1.99999 9.09345 1.99999 10.57 2 12.4536V12.5464C1.99999 14.43 1.99999 15.9066 2.1269 17.078C2.25642 18.2734 2.52546 19.242 3.12631 20.069C3.13951 20.0872 3.15281 20.1052 3.16621 20.1233C3.5221 20.6015 3.94852 21.0231 4.43101 21.3737C5.25801 21.9745 6.2266 22.2436 7.42203 22.3731C8.59343 22.5 10.0699 22.5 11.9535 22.5H12.0464C13.93 22.5 15.4066 22.5 16.578 22.3731C17.7734 22.2436 18.742 21.9745 19.569 21.3737C20.0697 21.0099 20.5099 20.5697 20.8737 20.069C21.7659 18.841 21.9387 17.274 21.9845 15.0646C22 14.3136 22 13.4644 22 12.5061V12.4536C22 10.57 22 9.09343 21.8731 7.92203C21.7436 6.7266 21.4745 5.75801 20.8737 4.93101C20.5099 4.43035 20.0697 3.99006 19.569 3.62631C18.742 3.02546 17.7734 2.75642 16.578 2.6269ZM5.3353 4.87095C5.85633 4.4924 6.52321 4.27175 7.58774 4.15641C8.66666 4.03952 10.0599 4.03846 12 4.03846C13.9401 4.03846 15.3333 4.03952 16.4123 4.15641C17.4768 4.27175 18.1437 4.4924 18.6647 4.87095C19.0348 5.13981 19.3602 5.46524 19.6291 5.8353C20.0076 6.35633 20.2283 7.02321 20.3436 8.08774C20.4605 9.16666 20.4615 10.5599 20.4615 12.5C20.4615 12.7615 20.4615 13.0134 20.4612 13.2562C20.3526 13.1642 20.2497 13.0833 20.1485 13.0114C17.6141 11.2119 14.118 11.6884 12.1577 14.1006C11.995 14.3008 11.8392 14.5352 11.6627 14.8276L11.5345 14.8019C10.4073 14.5763 9.71696 14.4382 9.06888 14.452C7.33712 14.4887 5.70908 15.285 4.61685 16.6294C4.3395 16.9708 4.10541 17.3704 3.82299 17.9134C3.75239 17.6229 3.69766 17.293 3.65641 16.9123C3.53952 15.8333 3.53846 14.4401 3.53846 12.5C3.53846 10.5599 3.53952 9.16666 3.65641 8.08774C3.77175 7.02321 3.9924 6.35633 4.37095 5.8353C4.63981 5.46524 4.96524 5.13981 5.3353 4.87095ZM19.2579 14.2658C19.5117 14.4461 19.8055 14.7285 20.4382 15.3597C20.3796 17.3809 20.1764 18.4114 19.6291 19.1647C19.3602 19.5348 19.0348 19.8602 18.6647 20.1291C18.1437 20.5076 17.4768 20.7283 16.4123 20.8436C15.3333 20.9605 13.9401 20.9615 12 20.9615C11.2392 20.9615 10.5625 20.9614 9.9558 20.9541L12.334 16.7466C12.4673 16.5108 12.583 16.3059 12.6864 16.1251C13.0141 15.5521 13.1912 15.2682 13.3516 15.0709C14.8005 13.288 17.3846 12.9358 19.2579 14.2658ZM8.25341 20.8394C8.24261 20.8586 8.23272 20.8779 8.22372 20.8975C7.99986 20.8831 7.78836 20.8653 7.58774 20.8436C6.52321 20.7283 5.85633 20.5076 5.3353 20.1291C5.10846 19.9642 4.89839 19.7782 4.70784 19.5736C5.28402 18.4212 5.52223 17.9548 5.81091 17.5995C6.61821 16.6058 7.82155 16.0173 9.10155 15.9901C9.49629 15.9817 9.93266 16.0536 10.8556 16.2356L8.25341 20.8394Z" fill="#A3A3A3"/>
</svg>
