<svg width="24" height="24" viewBox="0 0 24 24" fill="none" xmlns="http://www.w3.org/2000/svg">
<g clip-path="url(#clip0_148_60833)">
<path d="M8.5723 10.0914L7.92023 9.62104C7.4945 9.31396 7.07012 9.00805 6.6468 8.70291C5.47043 7.85495 4.30229 7.01292 3.13646 6.1682L8.5723 10.0914ZM8.5723 10.0914L8.89561 9.35525M8.5723 10.0914L8.89561 9.35525M8.89561 9.35525C8.9872 9.14672 9.0784 8.93937 9.16926 8.73281M8.89561 9.35525L9.16926 8.73281M14.999 9.12005C14.8495 8.77774 14.6999 8.43542 14.5503 8.09308C13.7897 6.35239 13.0289 4.61122 12.2713 2.86852C12.2713 2.86851 12.2713 2.86851 12.2713 2.8685L14.999 9.12005ZM14.999 9.12005C15.0281 9.18696 15.0677 9.26425 15.0985 9.32437C15.1088 9.34441 15.1181 9.36253 15.1257 9.37773L15.4666 10.0596L16.086 9.61515C16.2374 9.50654 16.3883 9.39843 16.5388 9.29061C16.8801 9.04608 17.2193 8.80303 17.5572 8.55898L17.5572 8.55895C18.0582 8.19701 18.5576 7.83561 19.0567 7.47443C19.675 7.02694 20.2929 6.57978 20.9128 6.13235C21.0503 6.03312 21.1486 6.04581 21.2441 6.11204C21.314 6.16089 21.3799 6.27099 21.3357 6.45177L14.999 9.12005ZM18.6368 17.4843L18.6369 17.484L18.6383 17.4783C19.5366 13.803 20.435 10.1274 21.3357 6.45189L18.6368 17.4843ZM18.6368 17.4843C18.6008 17.6319 18.501 17.7121 18.346 17.7121H18.3458M18.6368 17.4843L18.3458 17.7121M18.3458 17.7121C14.114 17.7129 9.88218 17.7129 5.65035 17.7121H5.65024M18.3458 17.7121H5.65024M5.65024 17.7121C5.50319 17.7121 5.3995 17.633 5.36238 17.481C4.46502 13.8036 3.56539 10.1261 2.66349 6.44862L2.66341 6.44831M5.65024 17.7121L2.66341 6.44831M2.66341 6.44831C2.62056 6.27394 2.68401 6.16335 2.75938 6.11128L2.75948 6.11121M2.66341 6.44831L2.75948 6.11121M2.75948 6.11121C2.82541 6.06564 2.86862 6.06057 2.90083 6.06258M2.75948 6.11121L2.90083 6.06258M9.16926 8.73281C9.36567 8.28628 9.56044 7.84348 9.75392 7.40049L9.16926 8.73281ZM2.90083 6.06258C2.94058 6.06505 3.01909 6.08329 3.13623 6.16803L2.90083 6.06258Z" stroke="#232323" stroke-width="1.3"/>
<path d="M18.3682 20.8357H18.3681C14.147 20.835 9.92503 20.835 5.70304 20.835H5.69543C5.6427 20.835 5.60207 20.8343 5.56811 20.8337C5.50735 20.8326 5.46799 20.8319 5.41907 20.8364L18.3682 20.8357ZM18.3682 20.8357C18.3778 20.8357 18.387 20.8357 18.396 20.8357C18.5368 20.8356 18.6095 20.8356 18.6744 20.849L18.6745 20.849M18.3682 20.8357L18.6745 20.849M18.6745 20.849C18.9235 20.9003 19.0103 21.0835 18.9987 21.1934M18.6745 20.849L19.4958 21.2471M10.2107 21.4994C10.8013 21.4992 11.3921 21.4991 11.983 21.4991H11.9834H11.9838H11.9842H11.9846H11.985H11.9854H11.9858H11.9862H11.9866H11.987H11.9874H11.9878H11.9882H11.9886H11.989H11.9894H11.9898H11.9902H11.9905H11.9909H11.9913H11.9917H11.9921H11.9925H11.9929H11.9933H11.9937H11.9941H11.9945H11.9949H11.9953H11.9957H11.9961H11.9965H11.9969H11.9973H11.9977H11.9981H11.9985H11.9989H11.9993H11.9997H12.0001H12.0005H12.0009H12.0013H12.0017H12.0021H12.0025H12.0029H12.0033H12.0037H12.0041H12.0045H12.0049H12.0053H12.0057H12.0061H12.0065H12.0069H12.0073H12.0077H12.0081H12.0085H12.0089H12.0093H12.0097H12.0101H12.0105H12.0109H12.0113H12.0117H12.0121H12.0125H12.0129H12.0133H12.0137H12.0141H12.0145H12.0149H12.0153H12.0157H12.0161H12.0164H12.0168H12.0172H12.0176H12.018H12.0184H12.0188H12.0192H12.0196H12.02H12.0204H12.0208H12.0212H12.0216H12.022H12.0224H12.0228H12.0232H12.0236H12.024H12.0244H12.0248H12.0252H12.0256H12.026H12.0264H12.0268H12.0272H12.0276H12.028H12.0284H12.0288H12.0292H12.0296H12.03H12.0304H12.0308H12.0312H12.0316H12.032H12.0324H12.0328H12.0332H12.0336H12.034H12.0344H12.0348H12.0352H12.0356H12.036H12.0364H12.0368H12.0372H12.0376H12.038H12.0384H12.0388H12.0392H12.0396H12.04H12.0404H12.0408H12.0412H12.0416H12.042H12.0424H12.0428H12.0432H12.0436H12.044H12.0444H12.0448H12.0452H12.0456H12.046H12.0464H12.0468H12.0472H12.0476H12.048H12.0484H12.0488H12.0492H12.0496H12.05H12.0504H12.0508H12.0512H12.0516H12.052H12.0524H12.0528H12.0532H12.0536H12.054H12.0544H12.0548H12.0552H12.0556H12.056H12.0564H12.0567H12.0571H12.0575H12.0579H12.0583H12.0587H12.0591H12.0595H12.0599H12.0603H12.0607H12.0611H12.0615H12.0619H12.0623H12.0627H12.0631H12.0635H12.0639H12.0643H12.0647H12.0651H12.0655H12.0659H12.0663H12.0667H12.0671H12.0675H12.0679H12.0683H12.0687H12.0691H12.0695H12.0699H12.0703H12.0707H12.0711H12.0715H12.0719H12.0723H12.0727H12.0731H12.0735H12.0739H12.0743H12.0747H12.0751H12.0755H12.0759H12.0763H12.0767H12.0771H12.0775H12.0779H12.0783H12.0787H12.0791H12.0795H12.0799H12.0803H12.0807H12.0811H12.0815H12.0819H12.0824H12.0828H12.0832H12.0836H12.084H12.0844H12.0848H12.0852H12.0856H12.086H12.0864H12.0868H12.0872H12.0876H12.088H12.0884H12.0888H12.0892H12.0896H12.09H12.0904H12.0908H12.0912H12.0916H12.092H12.0924H12.0928H12.0932H12.0936H12.094H12.0944H12.0948H12.0952H12.0956H12.096H12.0964H12.0968H12.0972H12.0976H12.098H12.0984H12.0988H12.0992H12.0996H12.1H12.1004H12.1008H12.1012H12.1016H12.102H12.1024H12.1028H12.1032H12.1036H12.104H12.1044H12.1048H12.1052H12.1056H12.106H12.1064H12.1068H12.1072H12.1076H12.108H12.1084H12.1088H12.1092H12.1096H12.11H12.1104H12.1108H12.1112H12.1116H12.112H12.1124H12.1128H12.1132H12.1136H12.1141H12.1145H12.1149H12.1153H12.1157H12.1161H12.1165H12.1169H12.1173H12.1177H12.1181H12.1185H12.1189H12.1193H12.1197H12.1201H12.1205H12.1209H12.1213H12.1217H12.1221H12.1225H12.1229H12.1233H12.1237H12.1241H12.1245H12.1249H12.1253H12.1257H12.1261H12.1265H12.1269H12.1273H12.1277H12.1281H12.1285H12.1289H12.1293H12.1298H12.1302H12.1306H12.131H12.1314H12.1318H12.1322H12.1326H12.133H12.1334H12.1338H12.1342H12.1346H12.135H12.1354H12.1358H12.1362H12.1366H12.137H12.1374H12.1378H12.1382H12.1386H12.139H12.1394H12.1398H12.1402H12.1406H12.141H12.1415H12.1419H12.1423H12.1427H12.1431H12.1435H12.1439H12.1443H12.1447H12.1451H12.1455H12.1459H12.1463H12.1467H12.1471H12.1475H12.1479H12.1483H12.1487H12.1491H12.1495H12.1499H12.1503H12.1507H12.1512H12.1516H12.152H12.1524H12.1528H12.1532H12.1536H12.154H12.1544H12.1548H12.1552H12.1556H12.156H12.1564H12.1568H12.1572H12.1576H12.158H12.1584H12.1588H12.1592H12.1597H12.1601H12.1605H12.1609H12.1613H12.1617H12.1621H12.1625H12.1629H12.1633H12.1637H12.1641H12.1645H12.1649H12.1653H12.1657H12.1661H12.1665H12.167H12.1674H12.1678H12.1682H12.1686H12.169H12.1694H12.1698H12.1702H12.1706H12.171H12.1714H12.1718H12.1722H12.1726H12.173H12.1734H12.1739H12.1743H12.1747H12.1751H12.1755H12.1759H12.1763H12.1767H12.1771H12.1775H12.1779H12.1783H12.1787H12.1791H12.1795H12.18H12.1804H12.1808H12.1812H12.1816H12.182H12.1824H12.1828H12.1832H12.1836H12.184H12.1844H12.1848H12.1852H12.1856H12.1861H12.1865H12.1869H12.1873H12.1877H12.1881H12.1885C12.766 21.4991 13.3433 21.4992 13.9206 21.4994C15.4601 21.4998 16.999 21.5002 18.5382 21.4977M10.2107 21.4994L18.5394 21.9977M10.2107 21.4994C8.63558 21.4998 7.0612 21.5002 5.48621 21.4977L10.2107 21.4994ZM18.5382 21.4977C18.5383 21.4977 18.5384 21.4977 18.5385 21.4977L18.5394 21.9977M18.5382 21.4977C18.5381 21.4977 18.538 21.4977 18.538 21.4977L18.5394 21.9977M18.5382 21.4977C18.8525 21.4968 18.9859 21.312 18.9987 21.1934M18.5394 21.9977C19.0496 21.9963 19.4497 21.6737 19.4958 21.2471M18.9987 21.1934C18.9987 21.1935 18.9987 21.1937 18.9987 21.1938L19.4958 21.2471M18.9987 21.1934L19.4958 21.2471M5.48602 21.4977C5.26931 21.4972 5.12745 21.4116 5.05944 21.3296C4.99782 21.2553 4.98226 21.1736 5.02183 21.0792L5.48602 21.4977ZM5.02187 21.0791C5.07632 20.9494 5.17298 20.8589 5.41897 20.8364L5.02187 21.0791Z" fill="#232323" stroke="#232323"/>
</g>
<defs>
<clipPath id="clip0_148_60833">
<rect width="20" height="20" fill="white" transform="translate(2 2)"/>
</clipPath>
</defs>
</svg>
