<svg width="20" height="20" viewBox="0 0 20 20" fill="none" xmlns="http://www.w3.org/2000/svg">
<path d="M14.1667 17.3751H5.83335C4.37579 17.3751 3.27202 16.9569 2.5326 16.2175C1.79317 15.4781 1.37502 14.3743 1.37502 12.9167V7.08342C1.37502 5.62585 1.79317 4.52208 2.5326 3.78266C3.27202 3.04324 4.37579 2.62508 5.83335 2.62508H14.1667C15.6242 2.62508 16.728 3.04324 17.4674 3.78266C18.2069 4.52208 18.625 5.62585 18.625 7.08342V12.9167C18.625 14.3743 18.2069 15.4781 17.4674 16.2175C16.728 16.9569 15.6242 17.3751 14.1667 17.3751ZM5.83335 3.20841C4.59269 3.20841 3.60631 3.50989 2.93307 4.18313C2.25983 4.85637 1.95835 5.84276 1.95835 7.08342V12.9167C1.95835 14.1574 2.25983 15.1438 2.93307 15.817C3.60631 16.4903 4.59269 16.7917 5.83335 16.7917H14.1667C15.4073 16.7917 16.3937 16.4903 17.067 15.817C17.7402 15.1438 18.0417 14.1574 18.0417 12.9167V7.08342C18.0417 5.84276 17.7402 4.85637 17.067 4.18313C16.3937 3.50989 15.4073 3.20841 14.1667 3.20841H5.83335Z" fill="#161B54" stroke="#161B54" stroke-width="0.666667"/>
<path d="M8.26044 9.8083L8.26045 9.80829L8.25783 9.80619L5.65077 7.72388C5.52054 7.6173 5.50562 7.43487 5.60017 7.3185C5.70665 7.18745 5.88964 7.17225 6.00627 7.26702L6.00844 7.26876L8.61614 9.3516C8.61627 9.3517 8.6164 9.3518 8.61653 9.35191C9.00292 9.66187 9.50765 9.80623 9.99562 9.80623C10.4836 9.80623 10.9883 9.66188 11.3747 9.35193C11.3748 9.35182 11.375 9.35171 11.3751 9.3516L13.9828 7.26876L13.9828 7.26877L13.985 7.26702C14.11 7.16542 14.2932 7.18965 14.3841 7.30959L14.3839 7.30971L14.3911 7.3185C14.4927 7.44355 14.4685 7.62675 14.3485 7.71761L14.3484 7.71752L14.3418 7.72286L11.7334 9.80619L11.7334 9.80615L11.7289 9.80991C11.2647 10.1943 10.6354 10.3916 9.99979 10.3916C9.36482 10.3916 8.73413 10.1945 8.26044 9.8083Z" fill="#161B54" stroke="#161B54" stroke-width="0.666667"/>
</svg>
