<svg width="24" height="24" viewBox="0 0 24 24" fill="none" xmlns="http://www.w3.org/2000/svg">
<path d="M12.028 13.6688C11.9999 13.6406 11.953 13.6031 11.9062 13.5469C11.8499 13.4906 11.7468 13.3781 11.578 13.2094C11.4093 13.0406 11.2405 12.8531 11.0718 12.6656C10.903 12.4781 10.6968 12.2437 10.4624 11.9719C10.228 11.6906 10.003 11.4094 9.7874 11.1375C9.57178 10.8563 9.34678 10.5469 9.1124 10.2C8.87803 9.85313 8.6624 9.51562 8.4749 9.1875C8.09053 8.35313 7.90303 7.56562 7.90303 6.81562C7.90303 6.2625 8.01553 5.72813 8.23115 5.20312C8.44678 4.67812 8.72803 4.22812 9.09365 3.84375C9.45928 3.45938 9.89053 3.15 10.3968 2.925C10.903 2.7 11.4374 2.57812 11.9905 2.57812C12.5437 2.57812 13.078 2.69063 13.5843 2.91563C14.0905 3.14063 14.5218 3.44063 14.8874 3.81563C15.253 4.19063 15.5437 4.64063 15.7593 5.14688C15.9749 5.6625 16.0874 6.19687 16.0874 6.75937C16.0874 7.69687 15.8624 8.52188 15.4218 9.21563C15.1405 9.64688 14.8405 10.0969 14.503 10.5656C14.1655 11.0344 13.8655 11.4375 13.5843 11.7938C13.303 12.15 13.0405 12.4781 12.8062 12.7687C12.5624 13.0594 12.3749 13.2844 12.2437 13.4437L12.028 13.6688ZM12.028 9.04688C12.703 9.04688 13.2843 8.80313 13.7624 8.33438C14.2405 7.85625 14.4749 7.28438 14.4749 6.60938C14.4749 6.16875 14.3624 5.75625 14.1468 5.38125C13.9312 5.00625 13.6312 4.70625 13.2562 4.49063C12.8812 4.275 12.4687 4.1625 12.028 4.1625C11.353 4.1625 10.7812 4.40625 10.303 4.875C9.8249 5.35313 9.59053 5.925 9.59053 6.60938C9.59053 7.29375 9.83428 7.86562 10.303 8.34375C10.7718 8.80312 11.353 9.04688 12.028 9.04688ZM11.9999 21.4219C11.3249 21.4219 10.6593 21.3937 9.99365 21.3469C9.32803 21.3 8.67178 21.225 8.0249 21.1312C7.37803 21.0375 6.75928 20.9062 6.15928 20.7562C5.55928 20.6062 4.99678 20.4281 4.47178 20.2313C3.94678 20.0344 3.46865 19.8 3.0374 19.5375C2.60615 19.275 2.23115 18.9937 1.92178 18.6844C1.6124 18.3844 1.36865 18.0469 1.1999 17.6625C1.03115 17.2875 0.946777 16.8937 0.946777 16.4719C0.946777 16.0312 1.04053 15.6094 1.2374 15.2062C1.43428 14.8031 1.71553 14.4469 2.07178 14.1281C2.4374 13.8094 2.85928 13.5094 3.34678 13.2469C3.83428 12.9844 4.37803 12.75 4.9874 12.5531C5.5874 12.3562 6.2249 12.1875 6.88115 12.0469C7.5374 11.9062 8.23115 11.7937 8.95303 11.7188C9.32803 12.2063 9.73115 12.6938 10.1624 13.1719C8.71865 13.275 7.4249 13.4813 6.2624 13.7906C5.0999 14.1 4.19053 14.4937 3.5249 14.9719C2.85928 15.4406 2.53115 15.9469 2.53115 16.4813C2.53115 16.7906 2.64365 17.0906 2.86865 17.3812C3.09365 17.6719 3.4124 17.9438 3.81553 18.1875C4.21865 18.4312 4.71553 18.6562 5.30615 18.8719C5.8874 19.0781 6.53428 19.2562 7.22803 19.3969C7.92178 19.5375 8.68115 19.65 9.50615 19.7344C10.3312 19.8188 11.1749 19.8563 12.028 19.8563C13.0593 19.8563 14.0624 19.8 15.028 19.6875C15.9937 19.575 16.8655 19.4156 17.6437 19.2094C18.4218 19.0031 19.1062 18.7594 19.6874 18.4781C20.278 18.1969 20.728 17.8875 21.0468 17.55C21.3655 17.2125 21.5249 16.8563 21.5249 16.4813C21.5249 15.9469 21.1874 15.4406 20.5218 14.9625C19.8468 14.4938 18.928 14.1 17.7562 13.7812C16.5843 13.4719 15.2718 13.2656 13.8187 13.1625C14.2124 12.6844 14.5874 12.1969 14.9624 11.7C15.5812 11.7656 16.1905 11.8594 16.7624 11.9625C17.3437 12.075 17.9062 12.2062 18.4499 12.3656C18.9937 12.525 19.4999 12.7031 19.9593 12.9C20.428 13.0969 20.8499 13.3219 21.2437 13.575C21.628 13.8281 21.9655 14.1 22.2374 14.3906C22.5093 14.6812 22.7155 15.0094 22.8655 15.3563C23.0155 15.7031 23.0905 16.0781 23.0905 16.4625C23.0905 16.9406 22.978 17.3906 22.7624 17.8031C22.5374 18.225 22.228 18.6 21.8343 18.9281C21.4405 19.2562 20.9624 19.5563 20.4187 19.8375C19.8655 20.1094 19.2749 20.3438 18.628 20.5312C17.9812 20.7188 17.2874 20.8875 16.5655 21.0187C15.8343 21.15 15.0937 21.2531 14.3343 21.3094C13.5374 21.3844 12.7687 21.4219 11.9999 21.4219ZM11.9999 16.5281C11.3718 16.5281 10.7812 16.4625 10.2468 16.3406C9.7124 16.2094 9.28115 16.0406 8.97178 15.8156C8.6624 15.6 8.50303 15.3562 8.50303 15.0938C8.50303 14.7937 8.70928 14.5312 9.1124 14.2875C9.51553 14.0437 10.0405 13.875 10.6968 13.7719C10.9499 14.0344 11.1655 14.2594 11.3343 14.4188L12.0937 15.1406L12.7874 14.3531L13.2937 13.7625C13.9499 13.8656 14.4749 14.0438 14.8874 14.2781C15.2905 14.5219 15.4968 14.7844 15.4968 15.0844C15.4968 15.3469 15.3374 15.5813 15.028 15.8063C14.7187 16.0219 14.2874 16.2 13.753 16.3312C13.2187 16.4625 12.628 16.5281 11.9999 16.5281Z" fill="#161B54"/>
</svg>
