<svg width="22" height="23" viewBox="0 0 22 23" fill="none" xmlns="http://www.w3.org/2000/svg">
<path d="M15 1.63965V3.63965M10 1.63965V3.63965M5 1.63965V3.63965" stroke="white" stroke-width="1.5" stroke-linecap="round" stroke-linejoin="round"/>
<path d="M18.5 9.63965C18.5 6.33982 18.5 4.6899 17.4749 3.66477C16.4497 2.63965 14.7998 2.63965 11.5 2.63965H8.5C5.20017 2.63965 3.55025 2.63965 2.52513 3.66477C1.5 4.6899 1.5 6.33982 1.5 9.63965V14.6396C1.5 17.9395 1.5 19.5894 2.52513 20.6145C3.55025 21.6396 5.20017 21.6396 8.5 21.6396H11.5" stroke="white" stroke-width="1.5" stroke-linecap="round" stroke-linejoin="round"/>
<path d="M16.5 13.6396L16.5 21.6396M20.5 17.6396L12.5 17.6396" stroke="white" stroke-width="1.5" stroke-linecap="round"/>
<path d="M6 14.6396H10M6 9.63965H14" stroke="white" stroke-width="1.5" stroke-linecap="round"/>
</svg>
