<svg width="24" height="24" viewBox="0 0 24 24" fill="none" xmlns="http://www.w3.org/2000/svg">
<path d="M9.75943 17.5189C11.4445 17.5189 12.9984 16.974 14.2698 16.0659L19.0526 20.8486C19.2746 21.0706 19.5672 21.1816 19.88 21.1816C20.5358 21.1816 21 20.6771 21 20.0313C21 19.7286 20.8991 19.436 20.6771 19.2241L15.9246 14.4615C16.9235 13.1498 17.5189 11.5252 17.5189 9.75943C17.5189 5.49124 14.0276 2 9.75943 2C5.50133 2 2 5.48115 2 9.75943C2 14.0276 5.49124 17.5189 9.75943 17.5189ZM9.75943 15.8439C6.42963 15.8439 3.67499 13.0892 3.67499 9.75943C3.67499 6.42963 6.42963 3.67499 9.75943 3.67499C13.0892 3.67499 15.8439 6.42963 15.8439 9.75943C15.8439 13.0892 13.0892 15.8439 9.75943 15.8439Z" fill="#232323"/>
</svg>
