<svg width="25" height="24" viewBox="0 0 25 24" fill="none" xmlns="http://www.w3.org/2000/svg">
<path fill-rule="evenodd" clip-rule="evenodd" d="M11.1667 2C6.38021 2 2.5 5.88021 2.5 10.6667C2.5 15.4532 6.38021 19.3334 11.1667 19.3334C15.9532 19.3334 19.8334 15.4532 19.8334 10.6667C19.8334 5.88021 15.9532 2 11.1667 2ZM3.83334 10.6667C3.83334 6.6166 7.1166 3.33334 11.1667 3.33334C15.2168 3.33334 18.5001 6.6166 18.5001 10.6667C18.5001 14.7168 15.2168 18.0001 11.1667 18.0001C7.1166 18.0001 3.83334 14.7168 3.83334 10.6667Z" fill="#848484"/>
<path d="M18.7493 17.3065C18.489 17.0462 18.0668 17.0462 17.8065 17.3065C17.5461 17.5669 17.5461 17.989 17.8065 18.2493L21.362 21.8048C21.6223 22.0652 22.0444 22.0652 22.3048 21.8049C22.5651 21.5445 22.5651 21.1224 22.3048 20.862L18.7493 17.3065Z" fill="#848484"/>
</svg>
