<svg width="16" height="17" viewBox="0 0 16 17" fill="none" xmlns="http://www.w3.org/2000/svg">
<path fill-rule="evenodd" clip-rule="evenodd" d="M6.13173 8.66553L3.73446 7.85649L3.73445 7.85649C1.41199 7.07268 0.250763 6.68078 0.279018 5.96058C0.307272 5.24037 1.49925 4.84847 3.88322 4.06467L3.88322 4.06467L12.8759 1.10805C14.5533 0.556541 15.392 0.280788 15.8119 0.717468C16.2318 1.15415 15.9234 1.98141 15.3066 3.63592L11.9997 12.5058C11.123 14.8572 10.6847 16.0329 9.96395 16.0329C9.24319 16.0329 8.89711 14.8572 8.20495 12.5058L7.4905 10.0787L12.0987 5.64773C12.5045 5.25751 12.5293 4.62483 12.1541 4.2346C11.7789 3.84438 11.1457 3.84438 10.7399 4.2346L6.13173 8.66553Z" fill="#F98C2C"/>
</svg>
