<svg width="24" height="24" viewBox="0 0 24 24" fill="none" xmlns="http://www.w3.org/2000/svg">
<path d="M11.5 14C9.57364 14 8 12.4334 8 10.4955C8 8.55757 9.57364 7 11.5 7C13.4264 7 15 8.56662 15 10.5045C15 12.4424 13.4264 14 11.5 14ZM11.5 8.35834C10.3243 8.35834 9.35659 9.31824 9.35659 10.5045C9.35659 11.6908 10.3152 12.6507 11.5 12.6507C12.6848 12.6507 13.6434 11.6908 13.6434 10.5045C13.6434 9.31824 12.6757 8.35834 11.5 8.35834Z" fill="#232323"/>
<path d="M11.4972 22C10.156 22 8.80576 21.4793 7.75456 20.4472C5.08124 17.8066 2.127 13.5946 3.24163 8.58298C4.24753 4.03626 8.11704 2 11.4972 2C11.4972 2 11.4972 2 11.5063 2C14.8864 2 18.7559 4.03626 19.7618 8.59228C20.8674 13.6039 17.9132 17.8066 15.2398 20.4472C14.1886 21.4793 12.8384 22 11.4972 22ZM11.4972 3.3947C8.86013 3.3947 5.47091 4.83589 4.57376 8.88982C3.59505 13.2692 6.27743 17.0442 8.70608 19.4338C10.2738 20.9865 12.7296 20.9865 14.2974 19.4338C16.717 17.0442 19.3993 13.2692 18.4388 8.88982C17.5326 4.83589 14.1343 3.3947 11.4972 3.3947Z" fill="#232323"/>
</svg>
