<svg width="20" height="20" viewBox="0 0 20 20" fill="none" xmlns="http://www.w3.org/2000/svg">
<path fill-rule="evenodd" clip-rule="evenodd" d="M19.4656 0.741555C19.4186 0.653555 19.3476 0.581555 19.2596 0.534555C17.1736 -0.575445 4.69457 3.29255 1.46658 5.15455C0.625575 5.63955 0.250575 6.20955 0.353575 6.84555C0.650575 8.68756 5.61357 10.0836 8.30657 10.7086L13.3636 5.65255C13.6566 5.35955 14.1316 5.35955 14.4246 5.65255C14.7176 5.94556 14.7176 6.42055 14.4246 6.71355L9.31857 11.8176C9.95957 14.5386 11.3406 19.3536 13.1536 19.6456C13.2216 19.6566 13.2896 19.6626 13.3566 19.6626C13.9106 19.6626 14.4106 19.2826 14.8436 18.5326C16.7056 15.3076 20.5766 2.83055 19.4656 0.741555Z" fill="#D1002C"/>
</svg>
