<svg width="94" height="98" viewBox="0 0 94 98" fill="none" xmlns="http://www.w3.org/2000/svg">
<g clip-path="url(#clip0_26_2296)">
<path d="M50.2596 84.8969C48.0623 85.0745 45.8745 84.9604 43.6962 84.6591C43.2061 84.2247 43.3515 83.6348 43.3515 83.1021C43.3357 79.6202 43.301 76.1383 43.3547 72.6564C43.4243 68.1535 41.6127 64.6462 38.0338 61.973C32.6559 57.9552 27.3445 53.8486 22.0678 49.6976C21.0688 48.9112 20.5281 48.0137 20.3447 46.7516C19.8389 43.3078 19.2224 39.8798 18.6565 36.4455C18.3119 34.3463 17.5594 32.4087 16.3896 30.6297C16.1715 30.2999 15.7288 30.005 16.0007 29.4913C17.1041 27.9628 18.0305 26.3138 19.1939 24.8202C23.0795 19.8289 27.9104 16.0711 33.6613 13.4899C33.9016 13.382 35.2606 13.3916 35.5294 13.344C35.9088 13.8482 36.92 14.4729 37.037 15.0469C41.125 15.9824 38.9633 18.601 42.46 17.6148C44.0574 15.9824 45.3505 15.1293 44.0574 11.7521C43.9057 11.3557 43.6148 10.9815 43.8108 10.5154C45.0375 10.509 52.8318 10.4932 52.8318 10.4932C52.8318 10.4932 51.987 12.4664 51.8068 12.9231C50.5738 16.053 51.8593 16.1082 55.0114 17.2308C58.1824 18.3597 57.1477 15.9824 59.2841 15.0769C59.458 14.4998 59.7961 14.5898 59.8182 14C59.8372 13.5021 59.3851 12.2552 59.8182 11.8462C62.4518 12.4994 65.9505 14.5617 68.2237 15.9824C72.691 18.7729 76.4533 22.3119 79.3587 26.7324C79.5611 27.0368 79.7192 27.3508 80.1428 27.3603C80.2408 27.8582 79.8203 28.0484 79.5548 28.3021C77.1203 30.5853 75.7893 33.4298 75.2582 36.6929C74.6986 40.1304 74.0821 43.5552 73.5699 46.999C73.3992 48.1438 72.8554 48.9334 71.967 49.631C66.782 53.7091 61.6223 57.8156 56.2824 61.6844C52.3526 64.5321 50.4303 68.2549 50.5884 73.1385C50.699 76.5379 50.6168 79.9436 50.601 83.3463C50.601 83.8727 50.7496 84.4625 50.2596 84.8969Z" fill="#EEF2FA"/>
<path d="M15.9976 29.4914C18.3846 32.3676 18.941 35.8843 19.4785 39.4201C19.8895 42.1187 20.3922 44.8015 20.8 47.5001C20.898 48.1407 21.1731 48.5561 21.6631 48.9493C27.1927 53.3603 32.8077 57.6635 38.4732 61.8969C41.9478 64.4941 43.6487 67.9696 43.6519 72.3045C43.6551 76.4238 43.6772 80.5431 43.693 84.6592C43.6772 88.3408 43.6645 92.0193 43.6487 95.701C43.6424 97.4768 43.1555 97.9937 41.442 97.9937C36.4688 98 31.4956 98 26.5225 97.9937C24.8215 97.9905 24.3663 97.5497 24.2872 95.8183C24.0185 89.9486 21.4671 85.3219 16.8291 81.7703C13.6675 79.3507 10.3067 77.169 7.65102 74.1279C2.92762 68.7243 0.271896 62.4329 0.110656 55.263C-0.0727155 47.1132 0.0189702 38.954 0.0663939 30.7979C0.0916865 26.13 4.63171 23.1428 8.97256 24.8362C11.6504 25.8795 14.1038 27.2557 15.9976 29.4914Z" fill="#092656"/>
<path d="M50.2596 84.897C50.2754 80.7397 50.3133 76.5824 50.2975 72.4282C50.2817 67.995 52.0111 64.4751 55.5679 61.8304C61.1797 57.6604 66.7124 53.3889 72.1851 49.0349C72.7416 48.591 73.064 48.1248 73.1779 47.3986C73.7248 43.9231 74.414 40.4666 74.8883 36.9815C75.4226 33.0684 77.1298 29.8687 80.146 27.3541C82.0682 26.1046 84.0505 24.9313 86.3174 24.4779C90.1587 23.7104 93.8356 26.593 93.8735 30.5252C93.9494 38.9571 94.1612 47.405 93.7977 55.8243C93.4025 65.0617 89.1944 72.536 81.8722 78.1965C80.1839 79.4998 78.4482 80.7397 76.7694 82.0557C72.359 85.5217 69.9499 90.0501 69.6748 95.6851C69.58 97.5878 69.1785 97.9905 67.3226 97.9905C62.4285 97.9937 57.5312 97.9937 52.6371 97.9905C50.7623 97.9905 50.3133 97.518 50.307 95.5805C50.2912 92.0225 50.2722 88.4613 50.2596 84.897Z" fill="#092656"/>
<path d="M44.7705 9.77828C46.0702 12.4488 45.8816 14.6593 44.131 16.3809C42.5613 17.9265 40.6614 18.3497 38.62 17.5716C36.5341 16.7752 35.4518 15.1351 35.2762 12.9035C35.2552 12.6433 35.2579 12.3804 35.25 12.1202C35.6981 10.1252 36.707 8.54816 38.7091 7.86476C41.1593 7.03154 43.1562 7.83848 44.7705 9.77828Z" fill="#161B54"/>
<path d="M60.4786 11.5084C60.5048 12.3567 60.6357 13.2129 60.387 14.0507C59.7953 16.0414 58.5044 17.3546 56.4804 17.7853C54.4224 18.2212 52.6367 17.5988 51.3328 15.9206C50.0314 14.2503 49.8848 12.3935 50.7436 10.4579C50.8484 10.2189 50.9688 9.98782 51.0814 9.75408C52.6576 7.89729 54.5926 7.06738 56.9962 7.80799C58.8265 8.37265 59.866 9.75408 60.4786 11.5084Z" fill="#161B54"/>
<path d="M9.75347 3.92263C9.75347 4.47758 9.79457 5.03569 9.74398 5.58429C9.65862 6.4944 9.10534 7.05569 8.21378 7.10326C7.30957 7.15082 6.65196 6.62759 6.57608 5.72699C6.47491 4.50929 6.46859 3.27255 6.5666 2.05485C6.63931 1.16694 7.25582 0.637362 8.19165 0.669073C9.18122 0.703955 9.69023 1.29695 9.75663 2.26097C9.79457 2.81274 9.76295 3.36769 9.76295 3.92263C9.75663 3.92263 9.75347 3.92263 9.75347 3.92263Z" fill="#161B54"/>
<path d="M3.26907 7.14136C3.86028 7.14136 4.45782 7.09696 5.04271 7.15087C5.89634 7.23332 6.418 7.73119 6.47491 8.60641C6.53814 9.52921 6.09236 10.1698 5.17866 10.2934C3.92984 10.4647 2.65572 10.4552 1.40374 10.2998C0.490044 10.1856 0.00632254 9.54189 0.0695541 8.63495C0.132786 7.7407 0.686062 7.19844 1.60924 7.14136C2.15936 7.10648 2.71263 7.13502 3.26591 7.13502C3.26907 7.13819 3.26907 7.14136 3.26907 7.14136Z" fill="#161B54"/>
<path d="M12.9878 7.14454C13.579 7.14454 14.1765 7.09697 14.7614 7.15722C15.6119 7.24284 16.1304 7.74705 16.1873 8.61911C16.2473 9.5419 15.7952 10.1793 14.8815 10.2998C13.6296 10.4679 12.3586 10.4647 11.1066 10.2998C10.1961 10.1825 9.71553 9.53556 9.78508 8.62862C9.85463 7.72802 10.4111 7.19845 11.3311 7.14454C11.8812 7.11283 12.4345 7.1382 12.9878 7.1382C12.9878 7.1382 12.9878 7.14137 12.9878 7.14454Z" fill="#161B54"/>
<path d="M9.7503 13.6516C9.7503 14.2065 9.7914 14.7646 9.74082 15.3132C9.65862 16.2265 9.10534 16.791 8.21694 16.8417C7.31589 16.8924 6.64247 16.3756 6.57292 15.475C6.47491 14.2192 6.46859 12.9412 6.59189 11.6887C6.68041 10.7849 7.37596 10.3409 8.29282 10.4139C9.16541 10.4836 9.64913 11.0259 9.73766 11.8726C9.79773 12.4592 9.7503 13.0586 9.7503 13.6516Z" fill="#161B54"/>
<path d="M29.2098 4.01791e-05C30.1931 0.0063824 30.9139 0.754765 30.8949 1.74732C30.876 2.73671 30.1235 3.44704 29.1276 3.40898C28.1855 3.3741 27.5089 2.67329 27.5026 1.72512C27.4931 0.738909 28.2297 -0.00630204 29.2098 4.01791e-05Z" fill="#161B54"/>
<path d="M64.5215 41.6018C64.4614 47.6396 59.4629 52.7483 53.4338 52.5485C51.6602 52.4882 50.0225 51.946 48.5334 50.9851C48.1065 50.7092 47.7936 50.5665 47.2782 50.9027C40.6768 55.1869 32.5453 50.7251 31.2933 42.9273C30.838 40.0924 31.7075 37.6887 33.1839 35.4182C36.7976 29.8655 41.6696 25.5433 46.8451 21.5319C47.4806 21.0403 48.1951 21.0213 48.8211 21.5128C54.3507 25.8446 59.6242 30.4237 63.1999 36.6232C64.0188 38.0343 64.572 39.5533 64.5215 41.6018Z" fill="#161B54"/>
<path d="M33.9469 23.5102C33.9547 26.4258 31.6224 28.7836 28.7261 28.7862C25.8297 28.7862 23.4948 26.4311 23.5 23.5154C23.5079 20.6393 25.8061 18.3236 28.671 18.3078C31.6014 18.2894 33.939 20.5946 33.9469 23.5102Z" fill="#161B54"/>
<path d="M60.8864 23.5049C60.8995 20.5761 63.224 18.2894 66.1623 18.3078C69.0219 18.3289 71.3333 20.6577 71.3411 23.5233C71.349 26.4179 68.9826 28.7888 66.0941 28.7862C63.1951 28.7862 60.8733 26.4284 60.8864 23.5049Z" fill="#161B54"/>
<path d="M40.386 82.4647C40.386 86.1876 40.348 89.9105 40.4113 93.6334C40.4271 94.6037 40.1204 94.8067 39.2162 94.794C35.6626 94.7464 32.109 94.7496 28.5554 94.794C27.7745 94.8035 27.4615 94.6006 27.3571 93.7951C26.5541 87.5702 23.5 82.6994 18.5079 78.9638C15.7288 76.8836 12.8044 74.9714 10.4427 72.3742C5.96589 67.4463 3.44928 61.6686 3.35127 54.9839C3.23429 46.9863 3.30068 38.9825 3.31017 30.9817C3.31333 28.8032 4.96367 27.3159 6.95547 27.6109C7.67315 27.7155 8.12525 27.9502 8.19164 28.8539C8.5078 33.2364 8.90932 37.6125 9.27923 41.9918C9.32349 42.5056 9.37724 43.0161 9.40253 43.5298C9.48473 45.201 9.81037 46.8278 9.14012 48.5338C8.52993 50.0909 8.91565 51.7557 9.94316 53.151C14.401 59.1951 18.8715 65.2329 23.3546 71.2612C24.0248 72.165 24.9575 72.3394 25.7226 71.7971C26.5446 71.2136 26.611 70.2242 25.8459 69.1936C21.5651 63.4095 17.278 57.6318 12.9878 51.854C12.3776 51.0327 11.878 50.2145 12.2985 49.1332C12.8423 47.7284 14.2777 47.2464 15.4538 48.1818C22.6337 53.8772 29.8832 59.4837 37.1707 65.0426C39.251 66.6282 40.3133 68.8987 40.3512 71.5371C40.4049 75.1807 40.3638 78.8243 40.3638 82.4679C40.3733 82.4647 40.3797 82.4647 40.386 82.4647Z" fill="#FEFEFE"/>
<path d="M17.2116 45.3786C15.8932 44.6176 14.7519 44.2941 13.5505 44.5097C12.817 44.6398 12.6874 44.3607 12.64 43.7328C12.4155 40.7361 12.1531 37.7394 11.9128 34.7427C11.7864 33.173 11.6725 31.6033 11.5366 29.8116C13.56 31.2608 14.8689 33.0398 15.3653 35.2184C16.1082 38.4815 16.5761 41.808 17.2116 45.3786Z" fill="#FEFEFE"/>
<path d="M90.6266 43.6789C90.6266 47.4018 90.7215 51.1278 90.6076 54.8475C90.3421 63.4063 86.6968 70.275 80.0069 75.5422C78.1447 77.0072 76.2003 78.3676 74.3571 79.8549C69.9878 83.3843 67.389 87.9603 66.6366 93.5446C66.5038 94.5371 66.1876 94.8257 65.1791 94.8067C61.6666 94.7337 58.1509 94.7591 54.6384 94.794C53.8575 94.8035 53.5445 94.6545 53.5508 93.7729C53.5887 86.5269 53.5729 79.2778 53.5729 72.0318C53.5729 68.9209 54.8376 66.4379 57.3099 64.5955C64.3096 59.3759 71.1766 53.9881 78.0088 48.5529C79.2702 47.5508 80.225 47.4652 81.0692 48.2421C82.0303 49.1237 82.0651 50.3636 81.1071 51.6574C76.899 57.3463 72.6783 63.0258 68.4639 68.7084C68.3217 68.8987 68.1794 69.089 68.0466 69.2856C67.3606 70.2781 67.427 71.22 68.2173 71.7939C69.0109 72.3679 69.9341 72.1618 70.6612 71.1851C74.3887 66.1747 78.1036 61.1549 81.8216 56.135C82.5519 55.1519 83.2917 54.1721 83.9936 53.17C85.0654 51.6447 85.3499 49.945 84.7145 48.2104C84.3446 47.1988 84.3129 46.2411 84.4046 45.2073C84.8789 39.7657 85.3468 34.3241 85.7546 28.8761C85.821 27.9914 86.2447 27.7282 86.975 27.6172C88.9257 27.3254 90.614 28.7683 90.6329 30.8517C90.6677 35.1296 90.6424 39.4074 90.6424 43.682C90.6361 43.6789 90.6298 43.6789 90.6266 43.6789Z" fill="#FEFEFE"/>
<path d="M76.7694 45.3564C77.4555 41.7635 77.7495 38.3292 78.6379 35.0122C79.1975 32.9225 80.4684 31.283 82.3053 29.8972C82.4318 31.6921 82.1093 33.3854 82.0018 35.0788C81.8216 37.9201 81.5371 40.7551 81.3158 43.5964C81.2652 44.2592 81.2241 44.7063 80.304 44.5129C79.1532 44.2719 78.0467 44.6587 76.7694 45.3564Z" fill="#FEFEFE"/>
<path d="M61.2461 41.44C61.1164 46.1428 57.547 49.5739 53.1145 49.2441C51.5495 49.1268 50.2627 48.3816 49.1119 47.3732C48.2615 46.628 47.43 46.5836 46.5858 47.3573C42.3967 51.1944 36.2696 49.0951 34.6762 43.3427C34.0565 41.1102 34.5718 39.1378 35.8049 37.2637C38.7009 32.8463 42.4631 29.2535 46.5005 25.927C47.8663 24.8012 47.8916 24.8329 49.2637 25.9714C52.9849 29.0568 56.4784 32.3738 59.2701 36.3504C60.3419 37.8694 61.3883 39.4327 61.2461 41.44Z" fill="#161B54"/>
</g>
<defs>
<clipPath id="clip0_26_2296">
<rect width="94" height="98" fill="white"/>
</clipPath>
</defs>
</svg>
