<svg width="26" height="26" viewBox="0 0 26 26" fill="none" xmlns="http://www.w3.org/2000/svg">
<path d="M5.41671 8.93766C4.96798 8.93766 4.60421 9.30143 4.60421 9.75016C4.60421 10.1989 4.96798 10.5627 5.41671 10.5627H9.75004C10.1988 10.5627 10.5625 10.1989 10.5625 9.75016C10.5625 9.30143 10.1988 8.93766 9.75004 8.93766H5.41671Z" fill="#232323"/>
<path fill-rule="evenodd" clip-rule="evenodd" d="M13.3739 3.59749C12.4375 3.52099 11.2724 3.52099 9.7864 3.521H9.71369C8.22766 3.52099 7.0626 3.52099 6.12622 3.59749C5.17274 3.6754 4.38503 3.83666 3.67206 4.19993C2.49997 4.79715 1.54702 5.75009 0.949813 6.92218C0.586534 7.63516 0.425273 8.42286 0.34737 9.37634C0.270865 10.3127 0.270869 11.4778 0.270874 12.9638V13.0365C0.270869 14.5225 0.270865 15.6876 0.34737 16.624C0.425273 17.5775 0.586534 18.3652 0.949813 19.0781C1.54702 20.2502 2.49997 21.2032 3.67206 21.8004C4.38503 22.1637 5.17274 22.3249 6.12622 22.4028C7.06258 22.4793 8.22762 22.4793 9.71361 22.4793H9.78642C11.2724 22.4793 12.4375 22.4793 13.3739 22.4028C14.3273 22.3249 15.115 22.1637 15.828 21.8004C17.0001 21.2032 17.9531 20.2502 18.5503 19.0781C18.6045 18.9718 18.6542 18.8637 18.6998 18.7536C19.9637 19.3058 20.9987 19.7541 21.8389 19.982C22.7325 20.2244 23.6031 20.2744 24.3813 19.7652C25.1594 19.256 25.4622 18.4383 25.5979 17.5224C25.7293 16.6354 25.7292 15.4656 25.7292 14.0295V11.9708C25.7292 10.5348 25.7293 9.36489 25.5979 8.47797C25.4622 7.56203 25.1594 6.74435 24.3813 6.23515C23.6031 5.72595 22.7325 5.77589 21.8389 6.01832C20.9987 6.24624 19.9637 6.69449 18.6998 7.24668C18.6542 7.13661 18.6045 7.02855 18.5503 6.92218C17.9531 5.75009 17.0001 4.79715 15.828 4.19993C15.115 3.83666 14.3273 3.6754 13.3739 3.59749ZM19.1736 17.1873L19.0976 17.1541C19.2293 16.1205 19.2293 14.8238 19.2292 13.1141V12.8863C19.2293 11.1767 19.2293 9.87986 19.0976 8.84622L19.1736 8.81301C20.5675 8.20393 21.5291 7.78611 22.2644 7.58663C22.9851 7.39112 23.2894 7.46265 23.4915 7.59492C23.6936 7.72719 23.881 7.97737 23.9904 8.71606C24.1021 9.46972 24.1042 10.5181 24.1042 12.0393V13.961C24.1042 15.4822 24.1021 16.5306 23.9904 17.2843C23.881 18.023 23.6936 18.2731 23.4915 18.4054C23.2894 18.5377 22.9851 18.6092 22.2644 18.4137C21.5291 18.2142 20.5675 17.7964 19.1736 17.1873ZM4.40979 5.64782C4.85551 5.42072 5.40555 5.28679 6.25855 5.2171C7.12103 5.14663 8.21982 5.146 9.75004 5.146C11.2803 5.146 12.3791 5.14663 13.2415 5.2171C14.0945 5.28679 14.6446 5.42072 15.0903 5.64782C15.9566 6.08924 16.661 6.79359 17.1024 7.65992C17.2286 7.90764 17.3257 8.18717 17.399 8.53081C17.5997 9.47138 17.6042 10.7658 17.6042 13.0002C17.6042 15.2341 17.5997 16.5285 17.3991 17.469C17.3258 17.8129 17.2287 18.0926 17.1024 18.3404C16.661 19.2067 15.9566 19.9111 15.0903 20.3525C14.6446 20.5796 14.0945 20.7135 13.2415 20.7832C12.3791 20.8537 11.2803 20.8543 9.75004 20.8543C8.21982 20.8543 7.12103 20.8537 6.25855 20.7832C5.40555 20.7135 4.85551 20.5796 4.40979 20.3525C3.54346 19.9111 2.83912 19.2067 2.3977 18.3404C2.1706 17.8947 2.03667 17.3447 1.96697 16.4917C1.89651 15.6292 1.89587 14.5304 1.89587 13.0002C1.89587 11.4699 1.89651 10.3712 1.96697 9.50867C2.03667 8.65568 2.1706 8.10563 2.3977 7.65992C2.83912 6.79359 3.54346 6.08924 4.40979 5.64782Z" fill="#232323"/>
</svg>
