<svg width="20" height="20" viewBox="0 0 20 20" fill="none" xmlns="http://www.w3.org/2000/svg">
<path d="M4.16659 6.87516C3.82141 6.87516 3.54159 7.15498 3.54159 7.50016C3.54159 7.84534 3.82141 8.12516 4.16659 8.12516H7.49992C7.8451 8.12516 8.12492 7.84534 8.12492 7.50016C8.12492 7.15498 7.8451 6.87516 7.49992 6.87516H4.16659Z" fill="#232323"/>
<path fill-rule="evenodd" clip-rule="evenodd" d="M10.2875 2.76734C9.56718 2.70849 8.67099 2.70849 7.52788 2.7085H7.47195C6.32885 2.70849 5.43266 2.70849 4.71237 2.76734C3.97891 2.82726 3.37299 2.95131 2.82455 3.23076C1.92294 3.69015 1.18991 4.42318 0.730513 5.32479C0.451067 5.87323 0.327021 6.47916 0.267095 7.21261C0.208245 7.9329 0.208248 8.8291 0.208252 9.9722V10.0281C0.208248 11.1712 0.208245 12.0674 0.267095 12.7877C0.327021 13.5212 0.451067 14.1271 0.730513 14.6755C1.18991 15.5771 1.92294 16.3102 2.82455 16.7696C3.37299 17.049 3.97891 17.1731 4.71237 17.233C5.43264 17.2918 6.32882 17.2918 7.4719 17.2918H7.5279C8.67097 17.2918 9.56719 17.2918 10.2875 17.233C11.0209 17.1731 11.6268 17.049 12.1753 16.7696C13.0769 16.3102 13.8099 15.5771 14.2693 14.6755C14.311 14.5937 14.3493 14.5106 14.3844 14.4259C15.3566 14.8507 16.1528 15.1955 16.7991 15.3708C17.4865 15.5573 18.1561 15.5957 18.7547 15.204C19.3533 14.8123 19.5862 14.1833 19.6906 13.4788C19.7916 12.7965 19.7916 11.8966 19.7916 10.792V9.20835C19.7916 8.10371 19.7916 7.2038 19.6906 6.52155C19.5862 5.81698 19.3533 5.188 18.7547 4.79631C18.1561 4.40461 17.4865 4.44303 16.7991 4.62951C16.1528 4.80484 15.3566 5.14964 14.3844 5.57441C14.3493 5.48973 14.311 5.40661 14.2693 5.32479C13.8099 4.42318 13.0769 3.69015 12.1753 3.23076C11.6268 2.95131 11.0209 2.82726 10.2875 2.76734ZM14.7488 13.221L14.6904 13.1955C14.7917 12.4004 14.7916 11.4029 14.7916 10.0878V9.9126C14.7916 8.5975 14.7917 7.59993 14.6904 6.80482L14.7488 6.77928C15.8211 6.31075 16.5607 5.98935 17.1263 5.83591C17.6807 5.68551 17.9148 5.74053 18.0703 5.84228C18.2258 5.94403 18.3699 6.13648 18.4541 6.7047C18.5399 7.28443 18.5416 8.0909 18.5416 9.26103V10.7393C18.5416 11.9094 18.5399 12.7159 18.4541 13.2956C18.3699 13.8638 18.2258 14.0563 18.0703 14.158C17.9148 14.2598 17.6807 14.3148 17.1263 14.1644C16.5607 14.011 15.8211 13.6896 14.7488 13.221ZM3.39204 4.34451C3.73489 4.16982 4.15801 4.0668 4.81416 4.01319C5.4776 3.95898 6.32283 3.9585 7.49992 3.9585C8.67701 3.9585 9.52224 3.95898 10.1857 4.01319C10.8418 4.0668 11.2649 4.16982 11.6078 4.34451C12.2742 4.68407 12.816 5.22587 13.1556 5.89228C13.2527 6.08283 13.3274 6.29786 13.3838 6.5622C13.5381 7.28571 13.5416 8.28144 13.5416 10.0002C13.5416 11.7186 13.5381 12.7142 13.3838 13.4377C13.3274 13.7023 13.2527 13.9174 13.1556 14.108C12.816 14.7745 12.2742 15.3163 11.6078 15.6558C11.2649 15.8305 10.8418 15.9335 10.1857 15.9871C9.52224 16.0413 8.67701 16.0418 7.49992 16.0418C6.32283 16.0418 5.4776 16.0413 4.81416 15.9871C4.15801 15.9335 3.73489 15.8305 3.39204 15.6558C2.72563 15.3163 2.18382 14.7745 1.84427 14.108C1.66958 13.7652 1.56655 13.3421 1.51294 12.6859C1.45874 12.0225 1.45825 11.1773 1.45825 10.0002C1.45825 8.82307 1.45874 7.97785 1.51294 7.3144C1.56655 6.65825 1.66958 6.23514 1.84427 5.89228C2.18382 5.22587 2.72563 4.68407 3.39204 4.34451Z" fill="#232323"/>
</svg>
