<svg width="24" height="25" viewBox="0 0 24 25" fill="none" xmlns="http://www.w3.org/2000/svg">
<path d="M11.9999 17.1468C9.60992 17.1468 7.66992 15.2068 7.66992 12.8168C7.66992 10.4268 9.60992 8.48682 11.9999 8.48682C14.3899 8.48682 16.3299 10.4268 16.3299 12.8168C16.3299 15.2068 14.3899 17.1468 11.9999 17.1468ZM11.9999 9.98682C10.4399 9.98682 9.16992 11.2568 9.16992 12.8168C9.16992 14.3768 10.4399 15.6468 11.9999 15.6468C13.5599 15.6468 14.8299 14.3768 14.8299 12.8168C14.8299 11.2568 13.5599 9.98682 11.9999 9.98682Z" fill="#D1002C"/>
<path d="M12.0001 21.8369C8.24008 21.8369 4.69008 19.6369 2.25008 15.8169C1.19008 14.1669 1.19008 11.4769 2.25008 9.81687C4.70008 5.99688 8.25008 3.79688 12.0001 3.79688C15.7501 3.79688 19.3001 5.99688 21.7401 9.81687C22.8001 11.4669 22.8001 14.1569 21.7401 15.8169C19.3001 19.6369 15.7501 21.8369 12.0001 21.8369ZM12.0001 5.29688C8.77008 5.29688 5.68008 7.23688 3.52008 10.6269C2.77008 11.7969 2.77008 13.8369 3.52008 15.0069C5.68008 18.3969 8.77008 20.3369 12.0001 20.3369C15.2301 20.3369 18.3201 18.3969 20.4801 15.0069C21.2301 13.8369 21.2301 11.7969 20.4801 10.6269C18.3201 7.23688 15.2301 5.29688 12.0001 5.29688Z" fill="#D1002C"/>
</svg>
